<?xml version="1.0" standalone="no"?>
<!DOCTYPE svg PUBLIC "-//W3C//DTD SVG 20010904//EN"
 "http://www.w3.org/TR/2001/REC-SVG-20010904/DTD/svg10.dtd">
<svg version="1.0" xmlns="http://www.w3.org/2000/svg"
 width="3000.000000pt" height="2051.000000pt" viewBox="0 0 3000.000000 2051.000000"
 preserveAspectRatio="xMidYMid meet">

<g transform="translate(0.000000,2051.000000) scale(0.100000,-0.100000)"
fill="#000000" stroke="none">
<path d="M29721 11644 c0 -11 3 -14 6 -6 3 7 2 16 -1 19 -3 4 -6 -2 -5 -13z"/>
<path d="M29681 11321 c-8 -6 -9 -11 -3 -15 6 -3 14 -1 17 5 9 14 2 20 -14 10z"/>
<path d="M29870 11270 c0 -5 5 -10 10 -10 6 0 10 5 10 10 0 6 -4 10 -10 10 -5
0 -10 -4 -10 -10z"/>
<path d="M29660 11130 c0 -5 5 -10 10 -10 6 0 10 5 10 10 0 6 -4 10 -10 10 -5
0 -10 -4 -10 -10z"/>
<path d="M29737 11093 c-4 -3 -7 -13 -7 -22 1 -13 3 -13 11 2 11 19 8 33 -4
20z"/>
<path d="M27150 9678 c0 -12 22 -21 29 -11 3 6 13 13 21 16 8 3 0 4 -17 4 -18
-1 -33 -5 -33 -9z"/>
<path d="M26942 9408 c5 -15 28 -18 29 -3 0 6 -7 12 -17 13 -10 3 -15 -1 -12
-10z"/>
<path d="M3405 8550 c-3 -5 -12 -7 -20 -3 -19 7 -19 -11 -1 -26 11 -9 17 -8
29 4 11 11 38 15 94 16 68 1 73 2 38 10 -55 11 -133 11 -140 -1z"/>
<path d="M3326 8532 c-4 -7 -11 -10 -16 -7 -5 3 -16 -5 -24 -17 -12 -17 -13
-24 -3 -30 22 -14 37 -8 48 19 11 29 7 55 -5 35z"/>
<path d="M3205 8490 c-3 -5 -4 -10 -1 -10 2 0 11 -3 20 -6 11 -4 16 -1 16 10
0 18 -25 22 -35 6z"/>
<path d="M3130 8483 c-21 -8 -50 -34 -50 -45 0 -5 4 -7 9 -3 5 3 12 1 16 -5
10 -16 35 -12 35 7 0 9 7 25 17 35 17 19 7 23 -27 11z"/>
<path d="M3170 8450 c0 -5 4 -10 9 -10 6 0 13 5 16 10 3 6 -1 10 -9 10 -9 0
-16 -4 -16 -10z"/>
<path d="M3241 8434 c0 -11 3 -14 6 -6 3 7 2 16 -1 19 -3 4 -6 -2 -5 -13z"/>
<path d="M2988 8367 c-31 -32 -34 -37 -15 -36 15 0 60 56 50 61 -5 2 -20 -9
-35 -25z"/>
<path d="M25746 8312 c-3 -6 -1 -14 5 -17 14 -9 20 -2 10 14 -6 8 -11 9 -15 3z"/>
<path d="M25580 8300 c0 -5 5 -10 10 -10 6 0 10 5 10 10 0 6 -4 10 -10 10 -5
0 -10 -4 -10 -10z"/>
<path d="M25800 8250 c0 -5 5 -10 11 -10 5 0 7 5 4 10 -3 6 -8 10 -11 10 -2 0
-4 -4 -4 -10z"/>
<path d="M2865 8240 c-3 -6 1 -7 9 -4 18 7 21 14 7 14 -6 0 -13 -4 -16 -10z"/>
<path d="M25601 8241 c-7 -5 -9 -11 -4 -14 6 -4 19 0 29 8 15 11 16 14 4 15
-8 0 -21 -4 -29 -9z"/>
<path d="M3810 8216 c0 -9 5 -16 10 -16 6 0 10 4 10 9 0 6 -4 13 -10 16 -5 3
-10 -1 -10 -9z"/>
<path d="M25820 8215 c0 -8 6 -15 14 -15 22 0 28 17 10 24 -22 9 -24 8 -24 -9z"/>
<path d="M2803 8169 c-45 -58 -52 -91 -29 -122 17 -22 19 -18 37 53 7 30 20
60 27 66 8 5 12 21 10 35 -3 22 -7 19 -45 -32z m-16 -101 c-3 -8 -6 -5 -6 6
-1 11 2 17 5 13 3 -3 4 -12 1 -19z"/>
<path d="M25763 8190 c-4 -14 -14 -20 -34 -20 -26 0 -56 -29 -43 -43 7 -7 65
10 78 23 5 5 18 10 28 10 10 0 18 5 18 10 0 6 -5 10 -11 10 -5 0 -8 4 -5 9 3
5 -1 12 -10 15 -11 4 -18 -1 -21 -14z"/>
<path d="M2950 8189 c0 -5 5 -7 10 -4 6 3 10 8 10 11 0 2 -4 4 -10 4 -5 0 -10
-5 -10 -11z"/>
<path d="M25397 8176 c-3 -8 1 -22 8 -33 9 -10 14 -13 15 -5 0 9 14 11 55 6
47 -6 55 -4 55 10 0 11 -8 16 -27 15 -16 0 -38 2 -50 6 -16 5 -25 3 -29 -9 -3
-9 -10 -13 -16 -10 -5 3 -4 11 3 20 7 8 7 14 1 14 -5 0 -12 -6 -15 -14z"/>
<path d="M25655 8180 c3 -5 8 -10 11 -10 2 0 4 5 4 10 0 6 -5 10 -11 10 -5 0
-7 -4 -4 -10z"/>
<path d="M3522 8149 c2 -28 8 -35 28 -37 23 -2 24 -1 8 11 -10 8 -18 21 -18
30 0 9 -5 19 -11 22 -7 5 -9 -5 -7 -26z"/>
<path d="M3207 8123 c-23 -4 -25 -6 -13 -19 19 -18 52 -18 59 0 6 14 -1 27
-12 25 -3 -1 -18 -4 -34 -6z"/>
<path d="M3397 8109 c7 -7 15 -10 18 -7 3 3 -2 9 -12 12 -14 6 -15 5 -6 -5z"/>
<path d="M3326 8061 c-17 -19 -15 -23 15 -34 12 -4 16 2 16 24 0 34 -7 36 -31
10z"/>
<path d="M3492 8052 c13 -15 54 -12 51 3 -2 6 -16 10 -32 10 -23 0 -27 -3 -19
-13z"/>
<path d="M3258 8053 c7 -3 16 -2 19 1 4 3 -2 6 -13 5 -11 0 -14 -3 -6 -6z"/>
<path d="M3600 8045 c0 -8 -5 -15 -11 -15 -8 0 -8 -5 1 -15 9 -10 9 -15 1 -15
-6 0 -11 -5 -11 -11 0 -6 6 -9 13 -7 11 4 22 78 12 78 -3 0 -5 -7 -5 -15z"/>
<path d="M25465 8040 c4 -14 1 -16 -20 -12 -14 2 -32 -1 -40 -8 -12 -10 -18
-10 -30 0 -20 17 -20 -7 0 -34 18 -24 20 -45 3 -28 -7 7 -17 8 -29 1 -10 -5
-39 -10 -64 -11 -38 -2 -45 -5 -45 -23 0 -11 9 -28 20 -38 11 -9 20 -26 20
-37 0 -21 24 -28 35 -10 3 6 10 10 16 10 12 0 12 -37 -1 -45 -5 -3 -10 -13
-10 -21 0 -8 5 -14 10 -14 6 0 10 9 10 20 0 16 7 20 30 20 19 0 37 8 48 21 9
12 35 33 57 47 l40 27 -39 5 c-33 4 -41 10 -47 32 -5 18 -3 31 6 38 9 8 11 4
8 -17 -3 -26 -3 -27 6 -5 6 12 18 22 28 22 10 0 24 9 31 20 7 12 17 18 22 15
6 -4 13 1 16 10 5 12 14 15 30 11 14 -4 24 -2 24 4 0 11 -6 12 -88 15 -45 2
-52 0 -47 -15z m-70 -121 c-3 -4 -12 -6 -20 -2 -8 3 -15 0 -15 -6 0 -6 -4 -11
-10 -11 -17 0 -11 28 8 32 22 6 43 -2 37 -13z m5 -29 c0 -5 -7 -10 -15 -10 -8
0 -15 5 -15 10 0 6 7 10 15 10 8 0 15 -4 15 -10z"/>
<path d="M3440 8032 c0 -5 7 -9 15 -9 8 0 12 4 9 9 -3 4 -9 8 -15 8 -5 0 -9
-4 -9 -8z"/>
<path d="M3216 7985 c4 -8 11 -15 16 -15 6 0 5 6 -2 15 -7 8 -14 15 -16 15 -2
0 -1 -7 2 -15z"/>
<path d="M3367 7983 c-13 -12 -7 -33 8 -33 8 0 15 9 15 20 0 20 -11 26 -23 13z"/>
<path d="M3120 7970 c0 -5 5 -10 10 -10 6 0 10 5 10 10 0 6 -4 10 -10 10 -5 0
-10 -4 -10 -10z"/>
<path d="M3177 7973 c-11 -10 -8 -20 7 -26 10 -4 12 0 9 14 -6 21 -7 22 -16
12z"/>
<path d="M25910 7970 c0 -5 7 -10 15 -10 8 0 15 5 15 10 0 6 -7 10 -15 10 -8
0 -15 -4 -15 -10z"/>
<path d="M2796 7958 c-12 -27 -3 -69 12 -59 10 6 11 17 4 42 -7 26 -11 30 -16
17z"/>
<path d="M3587 7963 c-14 -13 -6 -33 13 -33 10 0 23 -8 29 -17 14 -25 31 -5
24 30 -5 27 -26 36 -39 16 -5 -8 -8 -8 -13 0 -4 6 -10 8 -14 4z"/>
<path d="M3236 7952 c-3 -6 -1 -14 5 -17 15 -10 25 3 12 16 -7 7 -13 7 -17 1z"/>
<path d="M3280 7935 c0 -14 -4 -25 -10 -25 -5 0 -10 -9 -10 -20 0 -16 -7 -20
-30 -20 -23 0 -30 -4 -30 -20 0 -11 -4 -20 -9 -20 -6 0 -7 16 -4 36 5 29 3 36
-8 32 -21 -7 -30 -70 -13 -89 8 -9 11 -19 7 -24 -5 -4 2 -6 14 -3 12 3 24 1
26 -6 3 -6 9 4 14 23 l9 35 13 -32 c7 -18 20 -32 27 -32 8 0 14 -7 14 -15 0
-12 7 -14 28 -9 15 4 29 10 32 14 3 4 15 9 28 12 23 6 26 1 22 -39 -2 -25 11
-29 39 -11 14 9 23 8 41 -5 21 -14 21 -17 6 -23 -9 -3 -33 -2 -54 4 -20 5 -44
11 -52 13 -10 3 -16 -5 -18 -23 -3 -21 -10 -28 -35 -34 -21 -4 -33 -2 -35 5
-3 8 -10 5 -19 -8 -8 -12 -18 -21 -24 -21 -14 0 -11 37 4 43 8 3 14 19 15 37
1 24 -5 33 -24 41 -31 11 -54 1 -33 -15 19 -14 23 -65 5 -72 -7 -3 -13 -19
-14 -36 -2 -72 -12 -105 -33 -103 -12 1 -24 7 -29 15 -7 11 -11 10 -24 -3 -15
-14 -15 -17 0 -32 14 -13 19 -14 25 -3 13 19 30 -10 23 -39 -4 -16 -1 -25 10
-29 13 -5 14 -9 5 -21 -10 -12 -16 -7 -32 28 -13 30 -21 38 -27 29 -10 -17 13
-65 35 -74 9 -3 26 -6 37 -6 21 0 32 -9 64 -55 31 -45 36 -65 18 -65 -9 0 -40
-25 -69 -56 -53 -57 -65 -86 -65 -159 0 -17 -7 -41 -17 -54 -20 -29 -33 -86
-38 -163 -2 -31 -10 -67 -18 -80 -24 -38 -40 -99 -29 -110 6 -6 12 -6 16 1 10
16 26 13 26 -4 0 -9 7 -18 15 -21 8 -4 15 -16 15 -29 0 -13 7 -25 15 -29 10
-3 15 -19 15 -42 0 -27 -4 -35 -14 -31 -10 4 -12 0 -9 -13 5 -20 -17 -50 -38
-50 -9 0 -9 3 0 14 9 11 9 16 0 22 -7 4 -17 0 -24 -9 -15 -21 -25 -22 -25 -1
0 8 -4 13 -9 9 -16 -9 -22 12 -8 27 8 7 12 18 10 24 -2 7 8 21 23 33 15 12 23
21 18 21 -5 0 -1 6 8 13 21 16 11 33 -25 42 -19 5 -28 3 -31 -6 -2 -8 -9 -34
-15 -59 -24 -92 -74 -238 -85 -251 -15 -16 -38 -173 -37 -256 0 -32 -5 -75
-11 -96 -9 -28 -8 -41 0 -49 9 -9 12 -6 12 15 0 15 4 27 9 27 14 0 22 73 8 83
-8 6 -6 7 6 3 13 -4 17 0 17 18 0 15 7 26 20 29 23 6 27 27 5 27 -8 0 -15 7
-15 15 0 8 5 14 12 13 7 -2 12 9 13 29 0 17 -3 29 -7 26 -5 -2 -8 -13 -8 -23
0 -13 -5 -17 -15 -14 -21 8 -19 27 5 42 11 7 20 19 20 27 0 21 40 18 69 -5 18
-16 21 -23 12 -34 -8 -10 -9 -16 -1 -21 5 -3 10 0 10 9 0 8 6 17 13 20 10 5
10 7 0 12 -7 3 -13 11 -13 18 0 19 -41 48 -61 43 -22 -6 -25 9 -5 29 19 18 26
18 26 -2 0 -8 5 -12 10 -9 6 3 10 0 10 -8 0 -10 7 -13 20 -10 11 3 27 0 35 -7
13 -10 19 -10 33 4 24 21 29 20 35 -3 3 -14 11 -18 33 -14 27 4 28 3 11 -11
-11 -8 -25 -12 -32 -10 -8 4 -15 -3 -17 -18 -2 -13 -10 -23 -18 -23 -11 0 -14
-10 -12 -41 2 -27 -2 -45 -12 -54 -9 -7 -14 -16 -11 -20 3 -4 -6 -15 -20 -24
-23 -15 -27 -15 -50 0 -19 12 -24 22 -19 37 4 13 2 18 -7 15 -18 -6 -18 -47 0
-58 10 -6 11 -10 4 -10 -7 0 -13 -9 -13 -21 0 -11 -10 -29 -22 -40 l-23 -18
43 -1 c23 0 42 -5 42 -11 0 -6 7 -17 16 -26 8 -9 13 -21 10 -28 -3 -8 2 -16
10 -19 14 -5 20 -36 7 -36 -24 1 -38 22 -42 63 -1 4 -5 7 -11 7 -5 0 -9 -12
-9 -27 0 -16 -3 -43 -7 -61 -3 -18 -1 -44 5 -60 9 -21 9 -36 1 -57 -8 -22 -8
-30 2 -36 21 -13 35 9 36 58 1 25 7 50 13 54 7 4 8 12 4 20 -6 9 -3 11 9 6 10
-4 22 -7 27 -7 5 0 9 -23 8 -50 -1 -28 3 -56 9 -62 15 -15 16 -32 2 -23 -5 3
-10 0 -10 -8 0 -22 -23 -37 -40 -27 -8 6 -10 10 -4 10 7 0 14 8 18 18 3 9 9
23 12 30 3 6 1 12 -6 12 -6 0 -21 -23 -32 -51 -17 -39 -23 -47 -30 -35 -5 9
-16 16 -24 16 -8 0 -17 7 -21 16 -9 25 -64 74 -81 74 -15 0 -12 -7 29 -55 9
-11 19 -29 21 -40 2 -11 10 -19 17 -17 6 1 17 -11 22 -27 6 -16 17 -32 25 -35
8 -3 14 -14 14 -25 0 -11 9 -22 19 -26 11 -3 23 -15 26 -26 4 -10 11 -17 16
-13 6 3 17 0 25 -7 22 -18 9 -101 -27 -168 -37 -70 -37 -110 3 -191 17 -36 38
-80 47 -98 9 -18 26 -43 39 -54 20 -19 26 -20 55 -10 41 15 64 11 92 -16 23
-23 51 -28 72 -14 9 6 10 23 3 67 -5 33 -8 93 -7 133 3 56 -1 78 -15 100 -12
17 -18 46 -18 80 0 37 -6 62 -19 80 -17 25 -18 33 -6 97 7 39 16 78 20 88 7
17 9 17 31 -4 16 -15 29 -19 41 -14 30 13 53 15 53 6 0 -5 -11 -11 -26 -13
-24 -3 -24 -4 -9 -23 12 -15 18 -17 22 -7 4 10 8 10 19 1 18 -15 18 -29 0 -29
-23 0 -27 -28 -10 -75 8 -25 12 -50 9 -55 -3 -6 1 -10 9 -10 11 0 16 -9 16
-28 0 -50 21 -80 55 -78 25 1 30 -2 27 -21 -2 -12 2 -24 8 -28 22 -13 8 -22
-31 -20 -49 3 -56 -9 -35 -58 21 -50 23 -82 7 -101 -11 -13 -11 -19 -1 -31 12
-14 15 -14 31 1 20 18 24 12 20 -28 -1 -10 3 -18 8 -18 6 0 11 -6 11 -14 0 -7
7 -19 15 -26 17 -14 18 -20 6 -39 -7 -11 -13 -11 -39 1 -28 14 -29 14 -24 -4
2 -10 7 -17 9 -14 7 7 53 -36 47 -45 -3 -5 2 -22 11 -39 12 -23 22 -30 38 -28
16 2 21 9 19 26 -3 17 2 22 18 22 12 0 19 4 16 9 -3 5 1 12 10 15 19 7 14 41
-6 41 -8 0 -16 8 -18 18 -3 14 4 17 35 17 56 0 67 -10 48 -46 -19 -36 -19 -44
0 -44 9 0 15 9 15 23 0 13 6 29 13 35 6 7 12 16 13 20 4 33 18 42 55 36 26 -4
39 -3 39 5 0 25 100 8 100 -18 1 -14 2 -14 14 2 12 16 14 16 27 0 13 -15 15
-12 19 22 3 24 12 42 25 49 11 6 24 16 30 22 11 12 105 7 105 -6 0 -4 -19 -11
-42 -15 -24 -4 -37 -9 -30 -12 8 -3 10 -9 3 -16 -5 -7 -7 -24 -4 -39 4 -23 11
-28 34 -28 17 0 32 6 35 15 3 8 21 30 39 50 27 27 33 41 30 66 -3 23 -1 30 9
26 10 -4 12 0 9 14 -3 10 0 19 6 19 12 0 45 59 37 67 -9 10 -46 -9 -40 -20 5
-8 4 -9 -4 -2 -7 6 -8 23 -3 45 l7 35 27 -27 c16 -16 32 -28 37 -28 6 0 10 -7
10 -15 0 -8 -7 -15 -15 -15 -16 0 -21 -35 -6 -45 14 -8 41 23 35 40 -4 8 -1
15 4 15 6 0 12 10 14 23 2 16 11 23 31 25 17 2 26 8 24 15 -3 7 -10 11 -16 10
-20 -5 -26 -5 -50 -4 -20 1 -22 3 -11 16 9 11 16 13 24 5 20 -20 36 -11 36 21
0 20 4 28 12 23 7 -5 8 -3 3 5 -4 7 2 22 16 37 21 23 22 25 5 43 -14 15 -15
24 -7 40 13 23 -5 43 -19 21 -13 -20 -22 7 -15 42 l7 31 14 -32 c11 -27 17
-31 28 -22 7 6 21 9 30 5 12 -4 16 0 16 15 0 12 -5 20 -12 19 -20 -5 -22 35
-2 49 10 7 12 13 6 13 -10 0 -10 5 -1 21 12 24 -1 39 -33 39 -10 0 -18 5 -18
11 0 6 -6 17 -14 24 -12 12 -15 12 -20 0 -3 -8 -1 -15 4 -15 6 0 10 -25 10
-55 0 -31 -4 -55 -10 -55 -17 0 -23 30 -12 55 8 18 7 33 -5 64 -9 23 -13 44
-10 47 3 4 22 -4 41 -16 22 -13 43 -19 56 -15 27 8 27 35 0 28 -11 -3 -20 -1
-20 5 0 6 9 14 20 17 13 4 20 15 20 31 0 21 -3 23 -19 14 -11 -5 -23 -15 -26
-20 -4 -6 -15 -8 -25 -5 -28 9 -90 72 -90 92 -1 17 -1 17 -14 1 -16 -22 -26
-23 -26 -3 0 8 5 15 10 15 6 0 10 9 10 20 0 21 -10 26 -25 11 -14 -14 -49 14
-42 34 9 23 30 19 24 -5 -5 -21 18 -29 25 -9 4 12 57 0 100 -22 10 -5 24 -9
32 -9 15 0 29 27 21 40 -3 5 -1 19 4 32 11 30 -4 72 -24 64 -8 -3 -15 -1 -15
5 0 6 -8 6 -21 -2 -17 -9 -24 -7 -41 10 -22 24 -38 20 -38 -11 0 -19 -2 -20
-17 -6 -10 9 -24 13 -30 11 -7 -3 -13 0 -13 5 0 5 9 12 21 15 16 4 20 12 17
39 -2 24 -8 33 -20 32 -11 -1 -18 5 -18 17 0 11 5 16 13 13 18 -7 41 22 33 41
-7 21 -35 19 -42 -2 -13 -42 -29 -63 -45 -63 -10 0 -19 8 -21 17 -2 10 -12 18
-22 18 -11 0 -21 5 -23 11 -5 15 33 24 46 11 7 -7 18 -7 36 3 23 12 26 19 23
59 l-3 46 -45 6 c-25 4 -53 2 -63 -3 -19 -10 -19 -2 0 50 3 7 -4 12 -19 12
-16 0 -29 9 -38 24 -11 21 -10 27 6 43 16 17 17 17 11 1 -5 -15 -1 -18 29 -18
31 0 35 3 29 18 -5 9 -8 25 -9 34 0 12 -6 16 -18 13 -10 -4 -21 1 -27 14 -10
17 -7 20 27 26 49 8 64 18 56 38 -7 18 -34 24 -34 7 0 -5 -4 -10 -10 -10 -5 0
-7 7 -4 15 4 11 2 13 -9 9 -8 -3 -19 1 -23 8 -9 13 -10 18 -13 38 0 6 -10 10
-20 10 -11 0 -21 6 -24 13 -2 6 -8 9 -12 4 -5 -4 0 -14 11 -22 18 -14 18 -16
2 -26 -21 -12 -24 -36 -5 -42 6 -2 2 -2 -10 -1 -12 2 -28 -2 -35 -8 -7 -7 -25
-14 -39 -15 -24 -1 -27 3 -32 40 -4 29 -1 47 9 58 8 9 12 23 8 32 -4 12 3 16
33 19 26 2 38 8 38 18 0 18 -55 15 -68 -3 -6 -9 -10 -9 -14 1 -4 10 -8 10 -20
1 -11 -10 -16 -10 -22 0 -5 7 -14 12 -22 11 -29 -4 -40 0 -32 13 4 6 9 27 10
46 2 33 2 33 -35 27 -20 -3 -31 -3 -24 0 6 3 12 14 12 24 0 53 34 69 45 20 4
-16 11 -30 17 -30 6 0 8 6 5 13 -19 45 -19 47 -3 47 10 0 19 -11 22 -30 4 -17
15 -32 25 -35 11 -4 17 -12 13 -18 -3 -7 1 -4 10 7 13 16 13 21 1 40 -19 29
-9 69 16 61 23 -7 59 2 59 16 0 5 -9 9 -20 9 -11 0 -23 7 -26 15 -9 22 -33 18
-54 -7 l-19 -23 -7 33 c-5 25 -12 32 -29 32 -16 0 -24 7 -28 26 -4 22 -1 25
15 21 13 -4 18 -1 14 8 -4 12 36 26 83 29 8 1 16 6 18 13 3 7 -13 15 -39 20
-36 7 -43 12 -40 30 3 20 -32 52 -44 40 -6 -6 18 -60 31 -69 6 -5 6 -11 -3
-20 -9 -9 -12 -9 -12 3 0 9 -12 25 -26 38 -31 27 -30 74 1 80 29 5 34 19 18
52 -20 40 -33 36 -33 -11 0 -52 -16 -52 -24 0 -3 23 -10 39 -14 36 -4 -2 -6
13 -4 35 4 33 1 38 -12 33 -16 -6 -20 2 -17 41 1 13 -10 26 -34 39 -19 11 -35
23 -35 28 0 5 -9 7 -20 3 -11 -3 -24 -4 -29 -1 -16 10 0 46 20 46 24 0 25 26
2 39 -17 10 -17 10 0 11 9 0 27 -6 38 -12 18 -11 23 -10 41 12 19 23 19 25 1
33 -25 11 -47 58 -31 68 16 10 21 56 7 64 -6 4 -17 -2 -25 -14 -22 -31 -34
-26 -23 11 5 18 9 34 9 35 0 1 -7 0 -15 -3 -20 -8 -20 25 -1 52 8 10 12 29 9
42 -4 18 -1 22 17 22 11 0 19 -4 15 -9 -3 -5 0 -13 6 -17 8 -4 9 -3 5 5 -4 6
0 14 8 17 9 3 16 13 16 21 0 13 -9 15 -45 10 -25 -4 -47 -2 -50 3 -3 6 5 10
18 10 24 0 42 21 30 34 -4 3 -19 6 -35 6 -18 0 -28 5 -28 15 0 8 -4 15 -10 15
-5 0 -10 -4 -10 -9 0 -5 -8 -11 -17 -15 -10 -3 -24 -9 -30 -12 -7 -3 -13 0
-13 6 0 6 -7 18 -15 27 -12 12 -19 13 -30 3 -8 -7 -15 -20 -15 -30 0 -9 -11
-22 -25 -28 -35 -16 -35 -16 -28 19 6 31 5 32 -20 25 -15 -3 -27 -3 -27 1 0 5
-19 7 -43 5 -32 -3 -47 1 -60 16 -18 19 -17 21 5 37 16 12 19 19 10 22 -7 3
-25 16 -39 29 -32 30 -33 30 -33 -1z m360 -189 c0 -2 -11 1 -24 7 -13 6 -22
17 -19 23 3 9 11 6 24 -7 10 -10 19 -21 19 -23z m-110 -20 c0 -7 9 -16 20 -19
25 -7 26 -27 1 -27 -10 0 -21 8 -25 18 -3 9 -9 23 -12 30 -3 6 -1 12 5 12 6 0
11 -6 11 -14z m-10 -45 c0 -5 3 -18 7 -28 7 -17 6 -17 -11 0 -9 9 -22 17 -27
17 -6 0 -7 5 -4 10 8 13 35 13 35 1z m-119 -11 c4 -37 2 -54 -8 -57 -11 -4
-25 46 -16 59 6 11 23 10 24 -2z m36 -32 c-3 -8 -6 -5 -6 6 -1 11 2 17 5 13 3
-3 4 -12 1 -19z m163 12 c0 -5 -7 -10 -15 -10 -8 0 -15 5 -15 10 0 6 7 10 15
10 8 0 15 -4 15 -10z m-117 -27 c-7 -2 -19 -2 -25 0 -7 3 -2 5 12 5 14 0 19
-2 13 -5z m181 -56 c-3 -9 -12 -17 -20 -17 -7 0 -20 -12 -28 -27 l-15 -28 -1
28 c0 18 5 27 16 27 11 0 14 5 10 16 -4 9 -1 23 5 31 10 12 14 12 26 0 8 -7
11 -21 7 -30z m-359 3 c24 0 26 -17 5 -43 -23 -29 -26 -53 -7 -60 6 -2 9 -7 6
-11 -3 -3 -14 2 -25 12 -10 10 -27 16 -36 14 -26 -5 -22 11 10 38 21 18 27 32
25 54 -1 17 0 23 3 14 3 -10 12 -18 19 -18z m285 -86 c0 -8 -4 -14 -9 -14 -13
0 -41 46 -41 67 1 15 5 13 25 -10 14 -15 25 -35 25 -43z m-210 47 c0 -5 -7
-11 -15 -15 -15 -5 -20 5 -8 17 9 10 23 9 23 -2z m300 -23 c0 -16 -3 -19 -11
-11 -6 6 -8 16 -5 22 11 17 16 13 16 -11z m-473 -60 c-3 -7 -5 -2 -5 12 0 14
2 19 5 13 2 -7 2 -19 0 -25z m328 1 c-5 -16 -1 -19 29 -19 20 0 36 -4 36 -9 0
-16 -31 -21 -52 -10 -17 9 -23 8 -30 -5 -11 -20 -28 -21 -28 -1 0 8 7 15 16
15 12 0 14 7 9 30 -5 25 -4 29 10 24 10 -4 13 -13 10 -25z m195 22 c0 -13 -28
-22 -35 -11 -3 4 1 11 7 13 20 8 28 8 28 -2z m-470 -37 c0 -8 -4 -12 -10 -9
-5 3 -10 10 -10 16 0 5 5 9 10 9 6 0 10 -7 10 -16z m210 6 c0 -5 -7 -10 -15
-10 -8 0 -15 5 -15 10 0 6 7 10 15 10 8 0 15 -4 15 -10z m-59 -57 c8 -21 12
-23 25 -13 20 17 43 -2 26 -22 -7 -9 -7 -19 -2 -28 17 -26 11 -37 -20 -38 -20
0 -30 4 -30 14 0 8 -9 14 -20 14 -11 0 -20 5 -20 11 0 5 -5 7 -11 3 -6 -3 -8
-17 -5 -30 5 -19 2 -24 -14 -24 -29 0 -30 51 -3 105 27 51 56 54 74 8z m239
22 c0 -10 -10 -15 -26 -15 -22 0 -25 2 -14 15 7 8 19 15 26 15 8 0 14 -7 14
-15z m-70 -77 c0 -12 -38 -10 -45 3 -4 6 -13 8 -20 5 -8 -3 -19 2 -27 11 -11
14 -10 16 10 11 15 -4 22 -2 22 8 0 11 8 9 30 -8 17 -12 30 -25 30 -30z m100
27 c0 -19 -9 -19 -34 0 -19 14 -19 15 7 15 17 0 27 -5 27 -15z m-69 -54 c-8
-5 -11 -16 -6 -30 5 -16 3 -20 -9 -15 -11 4 -16 0 -17 -12 -4 -66 -26 -86 -73
-68 -24 9 -1 33 26 26 15 -3 19 -1 16 9 -3 8 1 20 9 27 18 18 17 52 -2 52 -8
0 -15 5 -15 10 0 6 11 10 24 10 14 0 28 5 32 11 4 8 9 8 18 -1 8 -8 7 -13 -3
-19z m136 -53 c-3 -10 -1 -18 4 -18 5 0 9 -4 9 -10 0 -19 -42 -10 -47 10 -3
13 -14 20 -29 20 -31 0 -32 27 -1 32 34 6 69 -13 64 -34z m-247 -3 c0 -20 17
-19 23 0 4 11 4 10 3 -2 -1 -12 -11 -19 -29 -21 -29 -4 -30 -2 -21 22 8 20 24
21 24 1z m285 -27 c-1 -13 -3 -29 -4 -37 -2 -24 -14 -3 -16 29 -1 18 3 30 10
30 7 0 11 -10 10 -22z m-438 -10 c-3 -8 -6 -5 -6 6 -1 11 2 17 5 13 3 -3 4
-12 1 -19z m301 10 c-6 -18 -28 -21 -28 -4 0 9 7 16 16 16 9 0 14 -5 12 -12z
m-388 -37 c0 -5 -6 -11 -12 -14 -7 -2 -1 -8 15 -12 15 -4 27 -11 27 -15 0 -5
-9 -6 -20 -3 -23 6 -25 -4 -6 -29 17 -23 22 -23 29 2 7 27 27 25 27 -2 0 -33
-26 -103 -39 -104 -22 -3 -23 -4 -11 -19 17 -21 -21 -61 -46 -47 -13 7 -22 6
-32 -5 -8 -7 -11 -17 -8 -21 4 -3 11 0 15 7 7 10 10 10 16 1 4 -7 0 -19 -9
-28 -16 -16 -18 -16 -32 2 -18 26 -18 55 1 62 8 4 15 17 15 29 0 33 18 76 38
91 15 12 15 15 2 24 -22 15 -30 12 -31 -10 -2 -36 -4 -40 -14 -41 -5 0 -11 4
-13 10 -2 6 1 11 7 11 5 0 9 12 8 28 -2 20 2 26 14 24 20 -3 35 28 18 39 -8 4
-6 10 7 18 24 13 34 14 34 2z m60 -11 c0 -14 -18 -21 -25 -10 -4 6 -11 8 -16
5 -5 -4 -9 -2 -9 4 0 5 6 11 13 14 15 5 37 -2 37 -13z m123 3 c-7 -2 -21 -2
-30 0 -10 3 -4 5 12 5 17 0 24 -2 18 -5z m267 -19 c0 -2 -7 -4 -15 -4 -8 0
-15 4 -15 10 0 5 7 7 15 4 8 -4 15 -8 15 -10z m70 -4 c0 -5 -5 -10 -11 -10 -5
0 -7 5 -4 10 3 6 8 10 11 10 2 0 4 -4 4 -10z m-362 -86 c13 -4 22 -14 22 -26
0 -14 5 -18 15 -14 12 4 13 2 2 -14 -8 -13 -23 -20 -44 -20 -36 0 -42 14 -16
42 22 24 10 34 -24 19 -21 -10 -24 -10 -16 1 6 8 7 21 2 33 -16 40 -9 49 14
17 12 -18 32 -35 45 -38z m306 56 c25 -9 38 -50 16 -50 -5 0 -10 5 -10 10 0 6
-8 10 -17 8 -12 -2 -19 4 -21 20 -4 25 -3 26 32 12z m-111 -30 c-7 -28 -13
-25 -13 6 0 14 4 23 9 20 5 -3 7 -15 4 -26z m-176 -2 c-3 -8 -6 -5 -6 6 -1 11
2 17 5 13 3 -3 4 -12 1 -19z m242 5 c-3 -33 1 -43 16 -43 27 0 16 -28 -12 -32
-16 -3 -35 -8 -44 -12 -18 -8 -66 29 -49 39 5 3 10 1 10 -4 0 -6 16 -11 35
-11 40 0 43 8 15 40 -27 31 -25 40 6 40 18 0 25 -5 23 -17z m151 7 c0 -5 -7
-10 -15 -10 -8 0 -15 5 -15 10 0 6 7 10 15 10 8 0 15 -4 15 -10z m-360 -34
c-14 -14 -24 0 -16 21 6 15 8 15 16 3 6 -9 5 -19 0 -24z m47 -23 c-3 -10 -5
-2 -5 17 0 19 2 27 5 18 2 -10 2 -26 0 -35z m319 -18 c9 -14 14 -28 10 -32 -3
-3 -6 -1 -6 5 0 7 -9 12 -20 12 -11 0 -20 2 -20 4 0 2 -3 11 -6 20 -10 26 24
19 42 -9z m-111 -41 c-9 -10 -22 -13 -33 -9 -14 7 -13 9 8 15 39 12 43 11 25
-6z m-355 -26 c0 -5 -4 -8 -10 -8 -5 0 -10 10 -10 23 0 18 2 19 10 7 5 -8 10
-18 10 -22z m280 6 c0 -14 -5 -24 -11 -22 -6 2 -10 7 -10 11 1 4 1 14 1 22 0
8 5 15 10 15 6 0 10 -12 10 -26z m150 17 c0 -17 -18 -21 -24 -6 -3 9 0 15 9
15 8 0 15 -4 15 -9z m-280 -26 c0 -8 -2 -15 -4 -15 -2 0 -6 7 -10 15 -3 8 -1
15 4 15 6 0 10 -7 10 -15z m367 -19 c-7 -21 -42 -12 -45 12 -3 21 -2 21 23 10
14 -6 24 -16 22 -22z m-424 12 c-6 -7 -13 -20 -16 -28 -3 -9 -6 -3 -6 13 -1
19 4 27 15 27 12 0 14 -4 7 -12z m289 -10 c-17 -17 -15 -28 6 -29 9 -1 2 -6
-16 -12 -33 -10 -57 -2 -34 12 7 4 10 15 6 24 -5 13 0 17 22 17 22 0 25 -3 16
-12z m-352 -13 c0 -8 -7 -15 -15 -15 -9 0 -12 6 -9 15 4 8 10 15 15 15 5 0 9
-7 9 -15z m200 7 c0 -5 -9 -17 -19 -26 -21 -19 -37 -7 -27 19 6 16 46 21 46 7z
m80 -7 c0 -8 -4 -15 -10 -15 -5 0 -10 7 -10 15 0 8 5 15 10 15 6 0 10 -7 10
-15z m-539 -9 c-1 -4 5 -19 14 -35 13 -26 13 -30 0 -41 -8 -7 -15 -23 -15 -36
0 -25 -7 -29 -27 -16 -9 6 -10 17 -2 45 5 21 7 42 4 47 -7 11 14 55 22 47 2
-3 4 -8 4 -11z m699 -56 c0 -5 -2 -10 -4 -10 -3 0 -8 5 -11 10 -3 6 -1 10 4
10 6 0 11 -4 11 -10z m-640 -20 c0 -5 -5 -10 -11 -10 -5 0 -7 5 -4 10 3 6 8
10 11 10 2 0 4 -4 4 -10z m40 -21 c0 -6 9 -22 19 -36 31 -38 8 -72 -26 -38 -8
8 -19 13 -24 10 -5 -4 -9 0 -9 9 0 8 -3 22 -7 32 -4 12 -3 15 5 10 7 -4 15 -1
18 8 7 18 24 22 24 5z m440 -19 c0 -5 -4 -10 -10 -10 -5 0 -10 5 -10 10 0 6 5
10 10 10 6 0 10 -4 10 -10z m-508 -50 c15 0 17 -4 9 -18 -11 -20 -52 -27 -62
-10 -10 16 13 50 25 38 6 -6 18 -10 28 -10z m163 10 c3 -5 -3 -10 -15 -10 -12
0 -18 5 -15 10 3 6 10 10 15 10 5 0 12 -4 15 -10z m55 -45 c0 -8 -4 -15 -10
-15 -5 0 -10 7 -10 15 0 8 5 15 10 15 6 0 10 -7 10 -15z m-200 -45 c-24 -15
-36 -11 -14 4 10 8 21 12 24 10 2 -3 -2 -9 -10 -14z m235 10 c3 -5 1 -10 -4
-10 -6 0 -11 5 -11 10 0 6 2 10 4 10 3 0 8 -4 11 -10z m351 -27 c-3 -3 -13 -3
-22 1 -16 6 -15 8 2 21 16 12 19 12 22 -1 2 -9 1 -18 -2 -21z m-430 2 c9 -8
11 -15 6 -15 -5 0 -15 7 -22 15 -7 8 -9 15 -6 15 4 0 14 -7 22 -15z m524 -20
c0 -7 -11 -12 -25 -12 -14 0 -25 5 -25 12 0 7 11 13 25 13 14 0 25 -6 25 -13z
m-646 -4 c3 -5 -1 -11 -9 -15 -9 -3 -15 0 -15 9 0 16 16 20 24 6z m56 -21 c0
-5 -7 -10 -16 -10 -8 0 -12 5 -9 10 3 6 10 10 16 10 5 0 9 -4 9 -10z m60 0 c0
-5 -7 -10 -15 -10 -8 0 -15 5 -15 10 0 6 7 10 15 10 8 0 15 -4 15 -10z m-156
-15 c3 -8 15 -15 26 -15 24 0 27 -25 4 -34 -25 -10 -34 -7 -34 9 0 8 -4 15
-10 15 -5 0 -10 9 -10 20 0 23 15 27 24 5z m726 -45 c-19 -13 -30 -13 -30 0 0
6 10 10 23 10 18 0 19 -2 7 -10z m-657 -47 c-7 -2 -19 -2 -25 0 -7 3 -2 5 12
5 14 0 19 -2 13 -5z m-71 -35 c2 -13 9 -22 17 -20 19 4 51 -8 51 -19 0 -5 -11
-7 -24 -3 -19 4 -26 1 -31 -16 -6 -20 -7 -21 -21 -3 -15 20 -19 83 -5 83 5 0
11 -10 13 -22z m179 -62 l-12 -21 5 22 c2 12 -1 24 -7 26 -6 2 -7 9 -2 16 14
24 29 -17 16 -43z m814 6 c-6 -14 -8 -15 -13 -2 -3 8 -9 18 -15 21 -5 4 -6 12
-3 18 11 18 39 -16 31 -37z m-855 14 c0 -8 -9 -24 -20 -37 -16 -20 -19 -21
-20 -6 0 20 21 57 32 57 5 0 8 -6 8 -14z m-286 -28 c-8 -28 -10 -31 -22 -27
-13 5 4 49 18 49 7 0 9 -9 4 -22z m1046 1 c0 -11 -4 -18 -10 -14 -5 3 -7 12
-3 20 7 21 13 19 13 -6z m-854 -45 c12 -10 12 -13 -1 -24 -8 -7 -15 -21 -15
-31 0 -34 -29 -21 -32 14 -3 36 24 100 30 69 2 -9 10 -22 18 -28z m-89 14 c-3
-8 -6 -5 -6 6 -1 11 2 17 5 13 3 -3 4 -12 1 -19z m283 2 c0 -5 -7 -7 -15 -4
-8 4 -12 10 -9 15 6 11 24 2 24 -11z m-315 -67 c1 -22 -3 -33 -12 -33 -10 0
-13 14 -12 51 2 41 4 47 13 32 5 -10 11 -33 11 -50z m950 48 c3 -5 1 -12 -4
-15 -5 -3 -11 1 -15 9 -6 16 9 21 19 6z m-725 -5 c0 -3 -4 -8 -10 -11 -5 -3
-10 -1 -10 4 0 6 5 11 10 11 6 0 10 -2 10 -4z m61 -29 c-13 -13 -26 -3 -16 12
3 6 11 8 17 5 6 -4 6 -10 -1 -17z m-81 -47 c-8 -5 -19 -10 -25 -10 -5 0 -3 5
5 10 8 5 20 10 25 10 6 0 3 -5 -5 -10z m95 0 c3 -5 2 -10 -4 -10 -5 0 -13 5
-16 10 -3 6 -2 10 4 10 5 0 13 -4 16 -10z m35 -65 c0 -24 -5 -35 -15 -35 -10
0 -14 9 -13 28 3 54 28 61 28 7z m440 11 c0 -3 -4 -8 -10 -11 -5 -3 -10 -1
-10 4 0 6 5 11 10 11 6 0 10 -2 10 -4z m406 -81 c18 -13 17 -14 -18 -15 -43 0
-70 9 -62 21 8 14 58 11 80 -6z m-132 -70 c-15 -13 -30 -22 -33 -20 -7 8 31
45 47 45 10 0 5 -9 -14 -25z m-942 -14 c-5 -3 -14 -16 -21 -29 -7 -12 -16 -20
-22 -17 -14 9 -11 25 6 25 8 0 15 9 15 20 0 14 5 18 16 13 9 -3 11 -9 6 -12z
m1094 -106 c-8 -26 -16 -35 -33 -35 -31 0 -30 27 3 57 33 30 44 23 30 -22z
m-1259 13 c-3 -8 -6 -5 -6 6 -1 11 2 17 5 13 3 -3 4 -12 1 -19z m887 -23 c-4
-8 -8 -15 -10 -15 -2 0 -4 7 -4 15 0 8 4 15 10 15 5 0 7 -7 4 -15z m86 -35 c0
-10 -4 -22 -10 -25 -6 -4 -10 7 -10 25 0 18 4 29 10 25 6 -3 10 -15 10 -25z
m203 -34 c-35 -12 -42 2 -13 24 23 18 25 18 31 2 5 -12 -1 -20 -18 -26z
m-1103 24 c0 -5 -7 -10 -15 -10 -8 0 -15 5 -15 10 0 6 7 10 15 10 8 0 15 -4
15 -10z m80 0 c0 -5 -4 -10 -10 -10 -5 0 -10 5 -10 10 0 6 5 10 10 10 6 0 10
-4 10 -10z m1137 -16 c-3 -3 -12 -4 -19 -1 -8 3 -5 6 6 6 11 1 17 -2 13 -5z
m-1187 -24 c0 -11 5 -20 10 -20 6 0 10 -3 10 -7 0 -5 -11 -8 -25 -8 -14 0 -25
3 -25 8 0 4 5 7 11 7 6 0 8 9 4 20 -4 11 -2 20 4 20 6 0 11 -9 11 -20z m-112
-58 c2 -12 1 -22 -3 -22 -14 0 -36 30 -30 40 10 17 30 6 33 -18z m1441 -1
c-15 -5 -22 6 -14 19 6 9 10 9 16 -1 5 -8 4 -15 -2 -18z m-704 -1 c-3 -5 -12
-7 -20 -3 -21 7 -19 13 6 13 11 0 18 -4 14 -10z m115 -10 c0 -5 -2 -10 -4 -10
-3 0 -8 5 -11 10 -3 6 -1 10 4 10 6 0 11 -4 11 -10z m360 -16 c0 -8 -4 -12
-10 -9 -5 3 -10 13 -10 21 0 8 5 12 10 9 6 -3 10 -13 10 -21z m-45 -4 c3 -5
-1 -10 -9 -10 -9 0 -16 5 -16 10 0 6 4 10 9 10 6 0 13 -4 16 -10z m-995 -9 c0
-5 -6 -14 -14 -20 -12 -10 -17 -8 -26 8 -9 19 -8 21 15 21 14 0 25 -4 25 -9z
m720 -1 c0 -5 -4 -10 -10 -10 -5 0 -10 5 -10 10 0 6 5 10 10 10 6 0 10 -4 10
-10z m-125 -40 c13 -6 15 -9 5 -9 -8 0 -22 4 -30 9 -18 12 -2 12 25 0z m512 4
c-3 -3 -12 -4 -19 -1 -8 3 -5 6 6 6 11 1 17 -2 13 -5z m-139 -28 c4 -19 -16
-39 -30 -30 -4 3 -8 16 -8 30 0 19 5 25 17 22 10 -2 19 -12 21 -22z m-681 8
c-3 -3 -12 -4 -19 -1 -8 3 -5 6 6 6 11 1 17 -2 13 -5z m554 -67 c-8 -8 -11 -5
-11 9 0 27 14 41 18 19 2 -9 -1 -22 -7 -28z m79 12 c0 -5 -4 -9 -10 -9 -5 0
-10 7 -10 16 0 8 5 12 10 9 6 -3 10 -10 10 -16z m-264 -16 c-7 -7 -26 7 -26
19 0 6 6 6 15 -2 9 -7 13 -15 11 -17z m82 -1 c2 -7 -2 -10 -12 -6 -9 3 -16 11
-16 16 0 13 23 5 28 -10z m482 4 c0 -13 -28 -54 -33 -49 -16 15 -7 49 13 50
11 1 20 0 20 -1z m-1043 -38 c-3 -8 -6 -5 -6 6 -1 11 2 17 5 13 3 -3 4 -12 1
-19z m974 -21 c-13 -13 -15 1 -4 30 7 17 8 17 11 -1 2 -10 -1 -23 -7 -29z
m-604 11 c-3 -8 -6 -5 -6 6 -1 11 2 17 5 13 3 -3 4 -12 1 -19z m299 -5 c-10
-10 -19 5 -10 18 6 11 8 11 12 0 2 -7 1 -15 -2 -18z m144 -3 c0 -19 -1 -19
-20 -3 -11 10 -20 19 -20 20 0 2 9 3 20 3 13 0 20 -7 20 -20z m120 10 c0 -5
-7 -10 -16 -10 -8 0 -12 5 -9 10 3 6 10 10 16 10 5 0 9 -4 9 -10z m-1240 -35
c0 -27 -9 -32 -27 -14 -14 14 -6 39 13 39 8 0 14 -10 14 -25z m56 -41 c-27
-30 -32 -30 -38 1 -2 15 4 21 27 25 40 8 41 6 11 -26z m1261 4 c-3 -8 -6 -5
-6 6 -1 11 2 17 5 13 3 -3 4 -12 1 -19z m-257 -19 c0 -10 -7 -19 -15 -19 -16
0 -19 9 -9 34 8 20 24 11 24 -15z m160 17 c9 -12 8 -17 -9 -28 -15 -9 -17 -15
-9 -26 16 -19 -6 -40 -26 -23 -12 10 -12 16 1 41 8 16 12 34 8 40 -10 16 21
12 35 -4z m-426 -5 c3 -4 3 -11 0 -14 -8 -8 -34 3 -34 14 0 11 27 12 34 0z
m126 -44 c0 -7 -8 -22 -17 -33 -10 -11 -23 -29 -29 -39 -12 -21 -34 -32 -34
-17 0 10 68 102 75 102 3 0 5 -6 5 -13z m420 -17 c0 -5 -4 -10 -10 -10 -5 0
-10 5 -10 10 0 6 5 10 10 10 6 0 10 -4 10 -10z m-916 -15 c-4 -9 0 -15 9 -15
22 0 37 -23 30 -48 -7 -30 -16 -28 -32 11 -8 17 -19 35 -25 40 -8 5 -6 10 4
17 20 13 20 13 14 -5z m897 -58 c-18 -18 -33 11 -19 37 11 20 11 20 21 -2 7
-16 7 -26 -2 -35z m-273 24 c3 -8 -1 -12 -9 -9 -7 2 -15 10 -17 17 -3 8 1 12
9 9 7 -2 15 -10 17 -17z m-123 -1 c3 -5 1 -10 -4 -10 -6 0 -11 5 -11 10 0 6 2
10 4 10 3 0 8 -4 11 -10z m255 -4 c0 -3 -4 -8 -10 -11 -5 -3 -10 -1 -10 4 0 6
5 11 10 11 6 0 10 -2 10 -4z m70 -11 c0 -8 -4 -15 -10 -15 -5 0 -7 7 -4 15 4
8 8 15 10 15 2 0 4 -7 4 -15z m-316 -24 c3 -4 3 -11 0 -14 -8 -7 -44 4 -44 14
0 12 37 12 44 0z m117 -34 c-8 -8 -11 -7 -11 4 0 20 13 34 18 19 3 -7 -1 -17
-7 -23z m-71 8 c0 -8 5 -15 12 -15 6 0 9 -2 6 -5 -3 -3 -13 -3 -22 1 -17 7
-22 34 -6 34 6 0 10 -7 10 -15z m177 -37 c-3 -8 -6 -5 -6 6 -1 11 2 17 5 13 3
-3 4 -12 1 -19z m173 15 c-1 -18 -18 -35 -24 -24 -4 6 -4 16 -1 21 7 12 25 13
25 3z m-330 -50 c-11 -17 -11 -17 -6 0 3 10 6 24 7 30 0 9 2 9 5 0 3 -7 0 -20
-6 -30z m300 -13 c0 -5 -7 -10 -16 -10 -8 0 -12 5 -9 10 3 6 10 10 16 10 5 0
9 -4 9 -10z m-303 -16 c-3 -3 -12 -4 -19 -1 -8 3 -5 6 6 6 11 1 17 -2 13 -5z
m-312 -44 c-4 -12 -9 -19 -12 -17 -3 3 -2 15 2 27 4 12 9 19 12 17 3 -3 2 -15
-2 -27z m481 -17 c-5 -12 -10 -13 -18 -5 -8 8 -8 15 3 28 15 18 25 4 15 -23z
m-46 4 c0 -7 9 -19 20 -27 24 -17 26 -40 5 -40 -9 0 -18 -7 -21 -15 -4 -8 -17
-15 -30 -15 -28 0 -31 8 -8 24 10 8 16 27 16 49 0 20 4 37 9 37 5 0 9 -6 9
-13z m-543 -23 c-3 -3 -12 -4 -19 -1 -8 3 -5 6 6 6 11 1 17 -2 13 -5z m393
-14 c0 -11 -4 -20 -10 -20 -5 0 -10 9 -10 20 0 11 5 20 10 20 6 0 10 -9 10
-20z m-161 -85 c-13 -13 -26 -20 -27 -14 -7 19 8 39 29 39 21 0 21 0 -2 -25z
m-122 -47 c-3 -7 -5 -2 -5 12 0 14 2 19 5 13 2 -7 2 -19 0 -25z m-90 -50 c-3
-8 -6 -5 -6 6 -1 11 2 17 5 13 3 -3 4 -12 1 -19z m-47 -28 c0 -5 -5 -10 -11
-10 -5 0 -7 5 -4 10 3 6 8 10 11 10 2 0 4 -4 4 -10z"/>
<path d="M3130 7935 c-10 -13 -9 -15 9 -15 12 0 21 6 21 15 0 8 -4 15 -9 15
-5 0 -14 -7 -21 -15z"/>
<path d="M3440 7929 c0 -5 5 -7 10 -4 6 3 10 8 10 11 0 2 -4 4 -10 4 -5 0 -10
-5 -10 -11z"/>
<path d="M3480 7913 c-8 -16 -16 -31 -18 -35 -2 -5 1 -8 6 -8 5 0 12 9 15 20
3 11 13 20 22 20 9 0 15 5 13 12 -8 22 -25 18 -38 -9z"/>
<path d="M3862 7931 c4 -13 18 -16 19 -4 0 4 -5 9 -11 12 -7 2 -11 -2 -8 -8z"/>
<path d="M26760 7930 c0 -5 5 -12 10 -15 17 -10 12 -38 -6 -31 -11 4 -14 1
-12 -11 7 -35 41 -24 51 17 5 20 1 27 -18 37 -14 6 -25 7 -25 3z"/>
<path d="M3786 7901 c-7 -11 3 -41 14 -41 4 0 5 11 2 25 -5 27 -8 30 -16 16z"/>
<path d="M3558 7892 c-28 -6 -21 -22 8 -22 15 0 32 -8 39 -17 11 -15 13 -15
23 4 10 18 8 22 -11 28 -34 11 -41 12 -59 7z"/>
<path d="M25845 7890 c-3 -5 -1 -10 4 -10 6 0 11 5 11 10 0 6 -2 10 -4 10 -3
0 -8 -4 -11 -10z"/>
<path d="M3368 7873 c6 -2 18 -2 25 0 6 3 1 5 -13 5 -14 0 -19 -2 -12 -5z"/>
<path d="M3685 7860 c-3 -5 3 -10 14 -10 12 0 21 5 21 10 0 6 -6 10 -14 10 -8
0 -18 -4 -21 -10z"/>
<path d="M2820 7853 c1 -21 37 -53 53 -47 21 8 22 24 2 24 -9 0 -18 7 -21 15
-6 15 -34 21 -34 8z"/>
<path d="M3902 7836 c1 -10 8 -17 13 -17 15 1 12 24 -3 29 -9 3 -13 -2 -10
-12z"/>
<path d="M26690 7800 c-8 -5 -12 -11 -9 -14 3 -3 14 1 25 9 21 16 8 20 -16 5z"/>
<path d="M2880 7774 c0 -10 5 -26 10 -34 8 -11 9 -7 4 15 -8 37 -14 45 -14 19z"/>
<path d="M26609 7773 c-12 -16 -12 -17 1 -7 8 6 22 14 30 17 13 5 12 6 -1 6
-9 1 -23 -7 -30 -16z"/>
<path d="M3907 7758 c-14 -8 -16 -13 -6 -24 16 -19 26 -18 32 6 6 25 -3 31
-26 18z"/>
<path d="M2911 7744 c0 -11 3 -14 6 -6 3 7 2 16 -1 19 -3 4 -6 -2 -5 -13z"/>
<path d="M3826 7742 c-2 -4 10 -18 27 -32 25 -20 30 -21 24 -7 -4 10 -7 22 -7
27 0 10 -39 20 -44 12z"/>
<path d="M2917 7670 c4 -16 7 -17 19 -5 19 18 18 25 -5 25 -14 0 -18 -5 -14
-20z"/>
<path d="M24973 7663 c-18 -38 -16 -46 9 -40 14 4 26 0 35 -11 9 -12 15 -14
20 -5 5 6 21 15 36 18 34 9 36 35 2 35 -14 0 -25 -4 -25 -10 0 -6 -9 -6 -22
-1 -13 5 -22 16 -22 25 3 26 -20 18 -33 -11z"/>
<path d="M3154 7669 c-10 -17 13 -36 27 -22 12 12 4 33 -11 33 -5 0 -12 -5
-16 -11z"/>
<path d="M3920 7669 c0 -14 50 -62 57 -55 3 2 -4 15 -16 27 -12 13 -21 26 -21
31 0 4 -4 8 -10 8 -5 0 -10 -5 -10 -11z"/>
<path d="M2991 7654 c0 -11 3 -14 6 -6 3 7 2 16 -1 19 -3 4 -6 -2 -5 -13z"/>
<path d="M3870 7657 c0 -9 7 -14 15 -13 20 3 20 20 1 24 -9 2 -16 -3 -16 -11z"/>
<path d="M25128 7663 c6 -2 18 -2 25 0 6 3 1 5 -13 5 -14 0 -19 -2 -12 -5z"/>
<path d="M3065 7650 c3 -5 10 -10 16 -10 5 0 9 5 9 10 0 6 -7 10 -16 10 -8 0
-12 -4 -9 -10z"/>
<path d="M25161 7634 c-7 -17 -17 -24 -26 -20 -18 6 -20 -5 -4 -21 16 -16 37
-5 54 28 18 35 19 39 2 39 -8 0 -19 -12 -26 -26z"/>
<path d="M2940 7628 c0 -14 9 -33 20 -43 11 -10 20 -23 20 -29 1 -32 86 -96
104 -79 11 11 6 23 -9 23 -8 0 -15 5 -15 10 0 6 -7 10 -15 10 -8 0 -15 5 -15
10 0 12 -33 60 -67 98 l-23 25 0 -25z"/>
<path d="M3780 7641 c0 -10 19 -25 25 -20 1 2 -3 10 -11 17 -8 7 -14 8 -14 3z"/>
<path d="M3893 7609 c-7 -7 -7 -17 1 -35 14 -30 22 -30 30 -2 7 28 -14 54 -31
37z"/>
<path d="M4030 7599 c0 -5 7 -9 15 -9 8 0 15 -9 15 -20 0 -11 5 -20 11 -20 6
0 8 7 5 16 -3 9 -6 19 -6 24 0 4 -9 10 -20 13 -11 3 -20 1 -20 -4z"/>
<path d="M24700 7560 c0 -5 5 -10 10 -10 6 0 10 5 10 10 0 6 -4 10 -10 10 -5
0 -10 -4 -10 -10z"/>
<path d="M3964 7539 c-10 -17 13 -36 27 -22 12 12 4 33 -11 33 -5 0 -12 -5
-16 -11z"/>
<path d="M24928 7542 c-17 -2 -28 -9 -28 -19 0 -9 -6 -13 -14 -10 -10 4 -13 1
-9 -9 3 -8 15 -14 27 -12 13 2 20 -2 19 -9 -4 -19 14 -16 29 5 7 10 21 21 31
25 42 16 3 36 -55 29z"/>
<path d="M25098 7543 c7 -3 16 -2 19 1 4 3 -2 6 -13 5 -11 0 -14 -3 -6 -6z"/>
<path d="M25355 7540 c-3 -5 -2 -10 4 -10 5 0 13 5 16 10 3 6 2 10 -4 10 -5 0
-13 -4 -16 -10z"/>
<path d="M25805 7541 c-3 -5 -1 -12 5 -16 5 -3 10 1 10 9 0 18 -6 21 -15 7z"/>
<path d="M25020 7515 c0 -18 5 -25 20 -25 22 0 26 20 8 38 -19 19 -28 14 -28
-13z"/>
<path d="M28070 7509 c0 -5 -12 -9 -27 -9 -22 -1 -25 -3 -12 -10 18 -11 58 -5
73 10 5 5 8 10 6 11 -3 0 -13 2 -22 4 -10 2 -18 -1 -18 -6z"/>
<path d="M3970 7490 c0 -5 7 -10 16 -10 8 0 12 5 9 10 -3 6 -10 10 -16 10 -5
0 -9 -4 -9 -10z"/>
<path d="M24980 7481 c0 -6 -6 -11 -13 -11 -7 0 -17 -10 -22 -22 -7 -17 -18
-22 -38 -21 -17 1 -27 -3 -27 -12 0 -28 51 -43 72 -21 7 7 23 18 34 24 22 12
27 63 7 70 -7 2 -13 -1 -13 -7z"/>
<path d="M3885 7460 c3 -5 8 -10 11 -10 2 0 4 5 4 10 0 6 -5 10 -11 10 -5 0
-7 -4 -4 -10z"/>
<path d="M3921 7454 c0 -11 3 -14 6 -6 3 7 2 16 -1 19 -3 4 -6 -2 -5 -13z"/>
<path d="M24875 7461 c-3 -5 -1 -12 5 -16 5 -3 10 1 10 9 0 18 -6 21 -15 7z"/>
<path d="M25026 7455 c-3 -8 -1 -15 3 -15 5 0 11 7 15 15 3 8 1 15 -3 15 -5 0
-11 -7 -15 -15z"/>
<path d="M4200 7450 c0 -5 7 -10 16 -10 8 0 12 5 9 10 -3 6 -10 10 -16 10 -5
0 -9 -4 -9 -10z"/>
<path d="M3830 7441 c0 -5 9 -18 20 -31 l20 -23 0 25 c0 17 -7 27 -20 31 -11
3 -20 2 -20 -2z"/>
<path d="M24785 7420 c28 -12 45 -12 45 0 0 6 -15 10 -32 9 -28 0 -30 -2 -13
-9z"/>
<path d="M25550 7411 c0 -20 13 -35 23 -25 7 8 -4 44 -14 44 -5 0 -9 -9 -9
-19z"/>
<path d="M25597 7407 c-4 -11 -1 -17 7 -17 8 0 21 -3 30 -6 9 -3 16 -1 16 5 0
6 -9 11 -19 11 -11 0 -21 5 -23 12 -3 7 -7 6 -11 -5z"/>
<path d="M24667 7370 c-15 -29 -15 -31 0 -28 24 5 40 35 26 49 -8 8 -15 2 -26
-21z"/>
<path d="M3806 7374 c-4 -10 -16 -14 -37 -12 -18 2 -34 -2 -36 -9 -3 -7 9 -11
31 -10 20 1 36 4 36 8 0 4 9 11 20 14 23 7 27 25 6 25 -8 0 -17 -7 -20 -16z"/>
<path d="M3901 7381 c-7 -5 -22 -6 -33 -3 -15 3 -19 1 -16 -9 7 -21 72 -18 76
4 4 19 -5 22 -27 8z"/>
<path d="M3956 7355 c-3 -9 0 -15 9 -15 8 0 15 7 15 15 0 8 -4 15 -9 15 -5 0
-11 -7 -15 -15z"/>
<path d="M24616 7345 c11 -17 12 -29 4 -49 -15 -39 -5 -48 54 -45 70 3 81 13
21 19 l-50 5 -3 41 c-2 31 -8 43 -22 47 -18 5 -18 3 -4 -18z"/>
<path d="M24897 7320 c-18 -21 -37 -26 -37 -10 0 6 -7 10 -16 10 -8 0 -12 -5
-9 -11 4 -6 -2 -13 -14 -16 -16 -4 -19 -9 -11 -18 7 -9 21 -10 46 -5 20 5 36
10 37 12 1 1 8 14 15 26 17 31 11 37 -11 12z"/>
<path d="M3910 7323 c-54 -7 -70 -14 -70 -28 0 -8 7 -15 15 -15 8 0 15 5 15
11 0 5 4 8 9 4 5 -3 13 0 16 6 4 5 13 8 19 6 15 -6 42 8 30 15 -5 2 -20 3 -34
1z"/>
<path d="M24758 7313 c7 -3 16 -2 19 1 4 3 -2 6 -13 5 -11 0 -14 -3 -6 -6z"/>
<path d="M4010 7270 c0 -5 5 -10 10 -10 6 0 10 5 10 10 0 6 -4 10 -10 10 -5 0
-10 -4 -10 -10z"/>
<path d="M3897 7263 c-26 -4 -28 -7 -22 -36 14 -73 50 -107 39 -37 -6 35 -4
40 13 40 22 0 47 23 36 33 -7 7 -18 7 -66 0z"/>
<path d="M24775 7241 c7 -13 -43 -51 -69 -51 l-20 0 21 -21 c26 -26 51 -20 81
21 23 30 20 60 -5 60 -8 0 -12 -4 -8 -9z"/>
<path d="M4022 7215 c-20 -10 -21 -13 -7 -19 30 -11 45 -6 45 14 0 23 -5 23
-38 5z"/>
<path d="M24525 7220 c-8 -13 9 -20 24 -11 10 6 9 10 -3 14 -8 3 -18 2 -21 -3z"/>
<path d="M24317 7213 c-4 -3 -7 -11 -7 -17 0 -6 5 -5 12 2 6 6 9 14 7 17 -3 3
-9 2 -12 -2z"/>
<path d="M24476 7213 c-4 -4 -19 -8 -34 -9 -15 -1 -32 -2 -37 -3 -13 -1 -39
-60 -31 -68 9 -9 58 16 51 26 -10 17 12 21 25 6 10 -12 10 -15 -3 -15 -8 0
-20 -7 -27 -15 -16 -20 0 -19 28 1 12 8 22 24 22 35 0 11 7 22 15 25 8 4 15
10 15 15 0 11 -14 12 -24 2z"/>
<path d="M24860 7210 c0 -5 5 -10 10 -10 6 0 10 5 10 10 0 6 -4 10 -10 10 -5
0 -10 -4 -10 -10z"/>
<path d="M4055 7171 c-3 -5 -19 -12 -35 -16 -17 -4 -27 -11 -24 -17 4 -6 10
-6 17 1 6 6 26 11 44 11 25 0 31 4 27 15 -7 17 -20 20 -29 6z"/>
<path d="M4649 7175 c-4 -3 0 -19 8 -35 8 -17 12 -34 8 -40 -3 -5 0 -10 7 -10
7 0 24 -3 37 -7 l23 -6 -23 36 c-13 20 -29 37 -36 37 -6 0 -13 7 -15 16 -2 9
-6 13 -9 9z"/>
<path d="M4371 7154 c-18 -21 -6 -30 14 -11 8 9 15 18 15 21 0 11 -15 5 -29
-10z"/>
<path d="M3935 7150 c-8 -13 5 -13 25 0 13 8 13 10 -2 10 -9 0 -20 -4 -23 -10z"/>
<path d="M24563 7138 c-24 -11 -33 -53 -10 -45 6 2 20 -2 29 -11 16 -13 18
-13 24 1 8 21 1 60 -11 63 -5 1 -20 -2 -32 -8z"/>
<path d="M24659 7135 c-1 -3 -2 -9 -3 -14 0 -5 -4 -13 -8 -17 -5 -4 -8 -15 -8
-25 0 -9 -9 -19 -20 -22 -29 -7 -26 -39 3 -35 37 6 47 17 40 48 -3 19 -1 30 6
30 6 0 11 9 11 20 0 17 -18 30 -21 15z"/>
<path d="M4000 7112 c0 -14 40 -42 60 -42 11 0 20 -4 20 -10 0 -5 -7 -10 -16
-10 -24 0 -11 -23 20 -33 33 -11 48 0 23 17 -9 7 -17 26 -18 42 0 16 -3 23 -6
17 -2 -7 -13 -13 -23 -13 -13 0 -17 5 -13 20 4 16 0 20 -21 20 -14 0 -26 -3
-26 -8z"/>
<path d="M4120 7085 c0 -8 5 -15 10 -15 6 0 10 7 10 15 0 8 -4 15 -10 15 -5 0
-10 -7 -10 -15z"/>
<path d="M4181 7084 c0 -11 3 -14 6 -6 3 7 2 16 -1 19 -3 4 -6 -2 -5 -13z"/>
<path d="M24901 7084 c0 -11 3 -14 6 -6 3 7 2 16 -1 19 -3 4 -6 -2 -5 -13z"/>
<path d="M24470 7077 c0 -22 42 -30 60 -11 13 15 13 15 -8 9 -13 -4 -29 -2
-37 5 -12 10 -15 9 -15 -3z"/>
<path d="M24723 7083 c-34 -6 -29 -33 5 -33 16 0 31 3 35 6 7 7 -3 35 -12 33
-3 -1 -16 -4 -28 -6z"/>
<path d="M4736 7071 c-4 -5 -2 -12 3 -15 5 -4 12 -2 15 3 4 5 2 12 -3 15 -5 4
-12 2 -15 -3z"/>
<path d="M24836 7071 c-8 -12 3 -41 15 -41 12 0 12 37 0 45 -5 3 -12 1 -15 -4z"/>
<path d="M4392 7051 c4 -13 18 -16 19 -4 0 4 -5 9 -11 12 -7 2 -11 -2 -8 -8z"/>
<path d="M4780 7020 c11 -20 30 -28 30 -12 0 11 -22 32 -32 32 -5 0 -4 -9 2
-20z"/>
<path d="M24420 7024 c0 -8 5 -12 10 -9 6 4 8 11 5 16 -9 14 -15 11 -15 -7z"/>
<path d="M24781 7030 c-35 -8 -36 -26 -4 -42 46 -23 69 -4 40 33 -8 10 -21 13
-36 9z"/>
<path d="M4820 6972 c0 -11 4 -24 10 -27 5 -3 8 -22 5 -42 -4 -34 -4 -35 10
-17 11 17 12 27 1 57 -15 45 -26 57 -26 29z"/>
<path d="M4145 6959 c-4 -6 -23 -9 -44 -7 -42 3 -46 -15 -4 -20 31 -4 57 -22
33 -22 -12 -1 -11 -4 3 -14 27 -21 59 -9 50 18 -3 11 -7 29 -7 39 0 19 -21 23
-31 6z"/>
<path d="M24490 6951 c0 -5 5 -13 10 -16 6 -3 10 -2 10 4 0 5 -4 13 -10 16 -5
3 -10 2 -10 -4z"/>
<path d="M24240 6939 c0 -5 5 -7 10 -4 6 3 10 8 10 11 0 2 -4 4 -10 4 -5 0
-10 -5 -10 -11z"/>
<path d="M24650 6940 c0 -5 5 -10 10 -10 6 0 10 5 10 10 0 6 -4 10 -10 10 -5
0 -10 -4 -10 -10z"/>
<path d="M4345 6920 c-3 -5 -1 -10 4 -10 6 0 11 5 11 10 0 6 -2 10 -4 10 -3 0
-8 -4 -11 -10z"/>
<path d="M4646 6912 c6 -4 14 -32 18 -64 6 -49 5 -57 -11 -61 -16 -4 -17 -5 0
-6 9 0 17 -4 18 -8 10 -99 7 -123 -16 -141 -13 -11 -22 -21 -20 -23 6 -6 26
-176 27 -231 1 -27 5 -48 10 -48 4 0 11 -12 14 -27 4 -16 15 -39 25 -53 25
-36 35 -162 14 -180 -21 -17 -22 -150 -1 -150 8 0 18 -10 21 -22 13 -47 36
-88 49 -88 7 0 26 -13 42 -30 16 -16 39 -30 51 -30 12 0 25 -6 30 -12 12 -19
32 -115 39 -183 3 -33 14 -78 25 -99 27 -52 88 -126 105 -126 7 0 17 -6 21
-13 4 -7 19 -17 32 -23 13 -5 36 -32 51 -59 27 -47 31 -50 65 -47 20 2 43 -2
50 -8 24 -20 69 -8 83 22 9 20 25 31 55 38 48 13 67 33 67 70 0 21 8 31 38 46
20 10 41 24 45 29 20 25 -16 199 -49 236 -8 8 -14 21 -14 28 0 28 -59 88 -99
100 -23 6 -41 16 -41 22 0 5 -13 15 -29 22 -15 7 -47 27 -69 46 -39 31 -41 36
-36 71 4 23 -2 65 -15 114 -12 42 -21 85 -21 96 0 11 -5 20 -11 20 -7 0 -8 14
-4 40 7 44 -1 83 -17 74 -6 -4 -6 -10 1 -17 18 -18 13 -44 -9 -50 -11 -3 -20
-13 -20 -22 0 -11 5 -15 15 -11 20 7 20 -30 1 -50 -29 -28 -45 -17 -39 26 4
26 2 40 -6 40 -6 0 -11 7 -11 16 0 15 -2 15 -26 -1 -28 -18 -44 -14 -26 8 6 7
10 27 10 44 -1 24 -6 33 -22 37 -17 3 -17 4 4 4 54 -1 70 2 70 13 0 6 -9 13
-20 16 -24 6 -25 21 -4 48 10 14 17 16 22 8 4 -6 7 15 8 48 1 41 -3 59 -13 63
-19 8 -27 -18 -13 -44 10 -19 9 -24 -9 -37 -12 -8 -21 -20 -21 -28 0 -16 -51
-15 -65 1 -17 20 -55 27 -55 11 0 -8 -9 -22 -20 -32 -20 -18 -21 -18 -49 16
-16 19 -27 38 -24 42 3 5 -5 11 -16 14 -20 5 -20 6 -4 18 10 7 21 11 25 9 5
-3 8 1 8 8 0 8 -14 19 -31 25 -22 9 -30 17 -25 28 4 12 0 14 -19 11 -19 -4
-25 0 -25 13 0 22 19 41 42 41 20 0 23 16 8 54 -11 30 -30 34 -30 7 0 -11 -6
-26 -13 -33 -7 -7 -17 -22 -22 -33 -8 -17 -10 -16 -13 13 -2 18 -10 36 -18 39
-21 8 -17 28 9 41 l22 11 -22 6 c-16 5 -21 14 -21 36 1 17 -4 35 -10 41 -15
15 -15 101 -1 115 7 7 9 19 5 29 -5 13 -9 15 -18 6 -16 -16 -28 -15 -28 3 0 8
-8 15 -17 15 -11 0 -14 -3 -7 -8z m318 -607 c-4 -8 -10 -12 -15 -9 -11 6 -2
24 11 24 5 0 7 -7 4 -15z m64 -34 c3 -8 -1 -12 -9 -9 -7 2 -15 10 -17 17 -3 8
1 12 9 9 7 -2 15 -10 17 -17z m84 -122 c-5 -42 -22 -46 -22 -5 0 26 4 36 13
33 6 -2 11 -15 9 -28z m-62 -5 c0 -9 -7 -14 -17 -12 -25 5 -28 28 -4 28 12 0
21 -6 21 -16z m-210 -2 c0 -13 -12 -22 -22 -16 -10 6 -1 24 13 24 5 0 9 -4 9
-8z m-90 -122 c0 -19 -5 -30 -14 -30 -12 0 -12 5 -3 30 6 17 13 30 14 30 2 0
3 -13 3 -30z m348 -53 c2 -11 -6 -21 -24 -27 -35 -14 -41 -7 -20 25 19 28 39
29 44 2z"/>
<path d="M4025 6900 c-3 -5 -2 -10 4 -10 5 0 13 5 16 10 3 6 2 10 -4 10 -5 0
-13 -4 -16 -10z"/>
<path d="M24476 6895 c4 -8 10 -12 15 -9 11 6 2 24 -11 24 -5 0 -7 -7 -4 -15z"/>
<path d="M24316 6881 c-4 -5 -3 -16 0 -25 5 -14 8 -14 30 0 13 9 21 20 18 25
-7 12 -41 12 -48 0z"/>
<path d="M24606 6865 c7 -29 -3 -33 -22 -7 -13 16 -15 16 -25 -2 -6 -10 -19
-26 -29 -36 -10 -10 -15 -21 -12 -25 4 -3 -2 -3 -12 1 -13 5 -17 2 -14 -9 3
-14 -36 -57 -53 -57 -4 0 -6 10 -4 23 13 81 9 97 -19 63 -18 -24 -31 -30 -64
-30 -29 -1 -50 -9 -75 -30 -39 -33 -56 -68 -30 -64 20 4 29 -19 11 -25 -7 -2
0 -2 15 1 26 4 28 2 22 -17 -7 -24 13 -29 33 -9 14 14 16 32 3 23 -5 -3 -16 4
-25 16 -22 32 -6 64 32 65 16 1 37 4 45 7 11 4 14 2 10 -9 -3 -7 -9 -14 -14
-14 -5 0 -9 -11 -9 -25 0 -18 5 -25 20 -25 11 0 20 4 20 9 0 5 8 12 18 15 41
15 85 44 127 84 25 23 49 42 55 42 5 0 10 14 10 30 0 17 -5 30 -10 30 -6 0 -8
-11 -4 -25z"/>
<path d="M3965 6860 c3 -5 14 -10 23 -10 15 0 15 2 2 10 -20 13 -33 13 -25 0z"/>
<path d="M4180 6855 c0 -8 5 -15 10 -15 6 0 10 7 10 15 0 8 -4 15 -10 15 -5 0
-10 -7 -10 -15z"/>
<path d="M4070 6846 c0 -8 4 -17 9 -20 5 -4 7 3 4 14 -6 23 -13 26 -13 6z"/>
<path d="M24080 6845 c0 -9 9 -15 24 -15 13 0 26 7 30 15 4 11 -2 15 -24 15
-20 0 -30 -5 -30 -15z"/>
<path d="M4230 6840 c0 -5 7 -10 16 -10 8 0 12 5 9 10 -3 6 -10 10 -16 10 -5
0 -9 -4 -9 -10z"/>
<path d="M4298 6833 c7 -3 16 -2 19 1 4 3 -2 6 -13 5 -11 0 -14 -3 -6 -6z"/>
<path d="M24015 6821 c-6 -11 9 -23 19 -14 9 9 7 23 -3 23 -6 0 -12 -4 -16 -9z"/>
<path d="M4397 6802 c-19 -21 -22 -32 -7 -32 6 0 10 7 10 15 0 9 6 12 15 9 9
-4 15 0 15 10 0 21 -13 20 -33 -2z"/>
<path d="M4910 6768 c0 -19 2 -20 10 -8 13 19 13 30 0 30 -5 0 -10 -10 -10
-22z"/>
<path d="M4130 6750 c-8 -5 -10 -10 -5 -10 6 0 17 5 25 10 8 5 11 10 5 10 -5
0 -17 -5 -25 -10z"/>
<path d="M23782 6715 c6 -13 15 -22 21 -18 5 3 4 9 -3 13 -7 4 -9 13 -6 19 4
6 1 11 -8 11 -13 0 -14 -4 -4 -25z"/>
<path d="M24160 6721 c0 -5 5 -13 10 -16 6 -3 10 -2 10 4 0 5 -4 13 -10 16 -5
3 -10 2 -10 -4z"/>
<path d="M4415 6711 c-3 -5 -1 -12 5 -16 5 -3 10 1 10 9 0 18 -6 21 -15 7z"/>
<path d="M4087 6703 c-12 -12 -7 -20 19 -32 34 -15 50 -4 28 20 -18 19 -36 24
-47 12z"/>
<path d="M26082 6698 c-16 -16 -15 -28 3 -28 8 0 15 2 15 4 0 2 3 11 6 20 7
19 -7 21 -24 4z"/>
<path d="M4248 6663 c7 -3 16 -2 19 1 4 3 -2 6 -13 5 -11 0 -14 -3 -6 -6z"/>
<path d="M4850 6655 c0 -8 5 -15 10 -15 6 0 10 7 10 15 0 8 -4 15 -10 15 -5 0
-10 -7 -10 -15z"/>
<path d="M4995 6660 c-3 -5 -1 -10 4 -10 6 0 11 5 11 10 0 6 -2 10 -4 10 -3 0
-8 -4 -11 -10z"/>
<path d="M4075 6651 c-3 -5 -1 -12 5 -16 12 -7 30 2 30 16 0 12 -27 12 -35 0z"/>
<path d="M24206 6643 c-2 -10 -7 -28 -11 -39 -7 -27 16 -38 49 -22 18 8 24 18
24 40 -1 16 -6 27 -12 25 -6 -2 -10 -15 -8 -28 2 -19 1 -21 -7 -9 -6 8 -11 23
-11 33 0 9 -4 17 -9 17 -5 0 -12 -8 -15 -17z"/>
<path d="M4000 6621 c0 -12 5 -21 10 -21 6 0 10 6 10 14 0 8 -4 18 -10 21 -5
3 -10 -3 -10 -14z"/>
<path d="M4239 6633 c-28 -3 -38 -10 -43 -26 -9 -33 -7 -37 9 -37 8 0 15 7 15
15 0 9 6 15 13 13 16 -3 57 20 57 32 0 6 -3 9 -7 8 -5 -1 -24 -3 -44 -5z"/>
<path d="M4120 6619 c0 -5 5 -7 10 -4 6 3 10 8 10 11 0 2 -4 4 -10 4 -5 0 -10
-5 -10 -11z"/>
<path d="M4305 6600 c-3 -5 -1 -10 4 -10 6 0 11 5 11 10 0 6 -2 10 -4 10 -3 0
-8 -4 -11 -10z"/>
<path d="M23782 6578 c2 -6 10 -14 16 -16 7 -2 10 2 6 12 -7 18 -28 22 -22 4z"/>
<path d="M5076 6560 c8 -31 10 -33 24 -28 8 2 4 13 -10 28 l-21 25 7 -25z"/>
<path d="M3080 6555 c0 -8 -4 -15 -10 -15 -5 0 -10 -12 -10 -26 0 -16 5 -24
13 -21 6 2 11 11 9 21 -2 9 2 16 8 16 5 0 10 -4 10 -10 0 -5 5 -10 10 -10 15
0 12 29 -4 46 -19 18 -26 18 -26 -1z"/>
<path d="M4160 6544 c0 -8 5 -12 10 -9 6 4 8 11 5 16 -9 14 -15 11 -15 -7z"/>
<path d="M4330 6500 c-19 -16 -41 -29 -47 -30 -17 0 -16 -15 2 -30 13 -10 15
-9 15 8 0 22 22 33 69 34 17 1 32 7 35 13 3 8 -2 11 -15 8 -15 -4 -18 -2 -13
11 9 24 -8 19 -46 -14z"/>
<path d="M4170 6502 c1 -14 49 -42 55 -32 4 6 10 8 15 5 10 -6 25 14 16 22 -8
9 -86 13 -86 5z"/>
<path d="M4008 6483 c7 -3 16 -2 19 1 4 3 -2 6 -13 5 -11 0 -14 -3 -6 -6z"/>
<path d="M24020 6470 c0 -5 7 -7 15 -4 8 4 15 8 15 10 0 2 -7 4 -15 4 -8 0
-15 -4 -15 -10z"/>
<path d="M23775 6450 c-3 -5 -1 -10 4 -10 6 0 11 5 11 10 0 6 -2 10 -4 10 -3
0 -8 -4 -11 -10z"/>
<path d="M4350 6435 c7 -8 17 -15 22 -15 5 0 3 7 -6 15 -8 8 -18 15 -22 15 -3
0 -1 -7 6 -15z"/>
<path d="M4908 6388 c2 -10 8 -18 12 -18 4 0 10 8 12 18 3 12 -1 18 -12 18
-11 0 -15 -6 -12 -18z"/>
<path d="M5026 6391 c-4 -7 -5 -15 -2 -18 9 -9 19 4 14 18 -4 11 -6 11 -12 0z"/>
<path d="M4308 6353 c7 -3 16 -2 19 1 4 3 -2 6 -13 5 -11 0 -14 -3 -6 -6z"/>
<path d="M23455 6320 c-3 -5 -2 -10 4 -10 5 0 13 5 16 10 3 6 2 10 -4 10 -5 0
-13 -4 -16 -10z"/>
<path d="M23525 6320 c3 -5 12 -10 20 -10 8 0 17 5 20 10 4 6 -5 10 -20 10
-15 0 -24 -4 -20 -10z"/>
<path d="M25843 6323 c-21 -8 -15 -22 7 -16 11 3 20 9 20 14 0 10 -8 10 -27 2z"/>
<path d="M4240 6301 c0 -11 6 -22 13 -24 9 -4 9 -7 -1 -14 -12 -9 -12 -46 1
-59 4 -4 14 -1 23 7 14 11 18 11 30 -6 8 -10 14 -22 14 -27 0 -4 10 -8 22 -8
20 0 20 1 4 19 -9 10 -16 25 -14 32 2 9 -6 14 -22 14 -15 0 -26 6 -28 18 -2
12 3 17 17 17 12 0 21 5 21 10 0 6 -11 10 -25 10 -16 0 -25 6 -25 15 0 8 -7
15 -15 15 -8 0 -15 -9 -15 -19z"/>
<path d="M5135 6310 c3 -5 8 -10 11 -10 2 0 4 5 4 10 0 6 -5 10 -11 10 -5 0
-7 -4 -4 -10z"/>
<path d="M23681 6308 c0 -9 -4 -25 -7 -35 -5 -17 -5 -17 6 0 6 10 9 25 7 35
-4 15 -5 15 -6 0z"/>
<path d="M4400 6300 c0 -5 5 -10 10 -10 6 0 10 5 10 10 0 6 -4 10 -10 10 -5 0
-10 -4 -10 -10z"/>
<path d="M27967 6296 c-4 -10 -1 -13 9 -9 15 6 19 23 5 23 -5 0 -11 -7 -14
-14z"/>
<path d="M27910 6281 c0 -10 26 -9 36 2 4 4 -2 7 -14 7 -12 0 -22 -4 -22 -9z"/>
<path d="M23180 6265 c0 -8 4 -15 9 -15 5 0 11 7 15 15 3 9 0 15 -9 15 -8 0
-15 -7 -15 -15z"/>
<path d="M4474 6236 c-7 -14 -8 -30 -3 -38 6 -9 9 -7 9 9 0 12 5 25 10 28 12
7 13 25 3 25 -5 0 -13 -11 -19 -24z"/>
<path d="M23360 6220 c0 -5 5 -10 11 -10 5 0 7 5 4 10 -3 6 -8 10 -11 10 -2 0
-4 -4 -4 -10z"/>
<path d="M23343 6193 c-7 -2 -13 -18 -13 -35 0 -22 4 -29 17 -26 9 2 18 9 21
17 3 9 0 11 -8 6 -10 -6 -12 -1 -8 19 3 14 5 26 4 25 0 0 -7 -3 -13 -6z"/>
<path d="M4530 6166 c0 -8 7 -16 15 -20 9 -3 15 0 15 8 0 8 -7 16 -15 20 -9 3
-15 0 -15 -8z"/>
<path d="M4472 6151 c4 -13 18 -16 19 -4 0 4 -5 9 -11 12 -7 2 -11 -2 -8 -8z"/>
<path d="M23483 6150 c14 -9 17 -19 12 -37 -4 -18 -2 -24 7 -21 15 5 24 58 9
58 -5 0 -18 3 -28 6 -17 5 -17 5 0 -6z"/>
<path d="M3023 6143 c-12 -2 -24 -10 -27 -18 -4 -10 2 -11 27 -4 18 5 33 9 34
9 2 0 3 5 3 10 0 6 -3 9 -7 9 -5 -1 -18 -4 -30 -6z"/>
<path d="M26283 6033 c-15 -5 -17 -23 -4 -23 5 0 11 7 15 15 3 8 4 15 3 14 -1
0 -8 -3 -14 -6z"/>
<path d="M26340 6020 c0 -5 -11 -12 -25 -16 -14 -3 -25 -12 -25 -20 0 -22 23
-16 60 16 32 27 33 29 13 30 -13 0 -23 -4 -23 -10z"/>
<path d="M26218 5983 c6 -2 18 -2 25 0 6 3 1 5 -13 5 -14 0 -19 -2 -12 -5z"/>
<path d="M26147 5930 c-19 -23 -22 -40 -7 -40 6 0 10 7 10 15 0 9 9 15 21 15
11 0 19 5 17 12 -7 20 -23 19 -41 -2z"/>
<path d="M26583 5890 c-3 -11 -14 -20 -24 -20 -11 0 -19 -4 -19 -10 0 -28 68
13 70 43 0 16 -22 6 -27 -13z"/>
<path d="M26362 5870 c7 -11 17 -20 22 -20 5 0 1 9 -9 20 -10 11 -20 20 -22
20 -2 0 2 -9 9 -20z"/>
<path d="M2933 5872 c-26 -4 -27 -6 -12 -34 11 -20 11 -20 26 1 18 27 14 37
-14 33z"/>
<path d="M2851 5814 c0 -39 4 -67 14 -80 13 -18 14 -16 15 22 0 22 -4 44 -9
50 -5 5 -11 23 -14 39 -2 17 -5 3 -6 -31z"/>
<path d="M4650 5860 c-1 -3 -4 -19 -6 -37 -5 -33 11 -55 18 -25 4 15 -7 74
-12 62z"/>
<path d="M26410 5850 c0 -5 5 -10 10 -10 6 0 10 5 10 10 0 6 -4 10 -10 10 -5
0 -10 -4 -10 -10z"/>
<path d="M26466 5841 c-3 -5 1 -11 9 -15 15 -6 29 7 18 18 -9 9 -21 8 -27 -3z"/>
<path d="M2930 5770 c6 -11 15 -18 21 -14 6 4 6 11 -2 20 -17 21 -31 17 -19
-6z"/>
<path d="M26290 5779 c0 -5 5 -7 10 -4 6 3 10 8 10 11 0 2 -4 4 -10 4 -5 0
-10 -5 -10 -11z"/>
<path d="M26550 5749 c0 -5 5 -7 10 -4 6 3 10 8 10 11 0 2 -4 4 -10 4 -5 0
-10 -5 -10 -11z"/>
<path d="M25866 5732 c-3 -6 -1 -14 5 -17 14 -9 20 -2 10 14 -6 8 -11 9 -15 3z"/>
<path d="M24023 5723 c-24 -5 -26 -8 -15 -35 6 -15 10 -13 24 12 9 17 16 29
15 29 -1 -1 -12 -4 -24 -6z"/>
<path d="M26230 5719 c0 -5 5 -7 10 -4 6 3 10 8 10 11 0 2 -4 4 -10 4 -5 0
-10 -5 -10 -11z"/>
<path d="M26400 5721 c0 -5 7 -12 16 -15 21 -8 21 -8 21 9 0 8 -9 15 -19 15
-10 0 -18 -4 -18 -9z"/>
<path d="M27365 5721 c-6 -11 9 -23 19 -14 9 9 7 23 -3 23 -6 0 -12 -4 -16 -9z"/>
<path d="M26326 5697 c-11 -8 -15 -17 -10 -20 14 -8 37 8 33 22 -3 8 -10 8
-23 -2z"/>
<path d="M27470 5699 c0 -5 5 -7 10 -4 6 3 10 8 10 11 0 2 -4 4 -10 4 -5 0
-10 -5 -10 -11z"/>
<path d="M26795 5690 c-3 -5 3 -10 14 -10 12 0 21 5 21 10 0 6 -6 10 -14 10
-8 0 -18 -4 -21 -10z"/>
<path d="M4600 5680 c0 -5 5 -10 10 -10 6 0 10 5 10 10 0 6 -4 10 -10 10 -5 0
-10 -4 -10 -10z"/>
<path d="M4690 5680 c0 -5 5 -10 10 -10 6 0 10 5 10 10 0 6 -4 10 -10 10 -5 0
-10 -4 -10 -10z"/>
<path d="M23330 5681 c0 -5 7 -14 15 -21 13 -10 15 -9 15 9 0 12 -6 21 -15 21
-8 0 -15 -4 -15 -9z"/>
<path d="M26130 5664 c0 -8 5 -12 10 -9 6 4 8 11 5 16 -9 14 -15 11 -15 -7z"/>
<path d="M26743 5658 c-28 -13 -30 -38 -5 -38 11 0 24 11 30 25 13 27 9 29
-25 13z"/>
<path d="M26350 5645 c-10 -12 -9 -15 7 -15 10 0 28 7 39 15 18 14 18 14 -7
15 -15 0 -32 -7 -39 -15z"/>
<path d="M26270 5630 c-14 -4 -36 -5 -50 -2 l-25 5 25 -21 c23 -19 27 -19 55
-5 37 19 38 20 28 25 -4 3 -19 2 -33 -2z"/>
<path d="M27038 5626 c-23 -17 -23 -36 -1 -36 9 0 13 3 10 6 -3 4 -2 15 4 25
11 22 10 23 -13 5z"/>
<path d="M27225 5620 c3 -5 14 -10 23 -10 15 0 15 2 2 10 -20 13 -33 13 -25 0z"/>
<path d="M4712 5600 c0 -14 2 -19 5 -12 2 6 2 18 0 25 -3 6 -5 1 -5 -13z"/>
<path d="M26186 5589 c3 -5 14 -9 25 -9 10 0 19 4 19 9 0 5 -11 9 -25 9 -13 0
-22 -4 -19 -9z"/>
<path d="M4611 5569 c11 -7 11 -9 -3 -9 -38 0 -23 -15 18 -17 36 -1 44 2 44
16 0 13 -9 17 -37 18 -24 1 -32 -2 -22 -8z"/>
<path d="M27670 5516 c0 -24 17 -28 23 -6 3 13 0 20 -9 20 -8 0 -14 -6 -14
-14z"/>
<path d="M26900 5485 c0 -8 5 -15 10 -15 6 0 10 7 10 15 0 8 -4 15 -10 15 -5
0 -10 -7 -10 -15z"/>
<path d="M29680 5490 c0 -5 5 -10 10 -10 6 0 10 5 10 10 0 6 -4 10 -10 10 -5
0 -10 -4 -10 -10z"/>
<path d="M29742 5493 c-16 -6 -6 -23 14 -23 8 0 13 4 10 9 -4 5 0 12 6 14 9 4
8 5 -2 5 -8 0 -21 -2 -28 -5z"/>
<path d="M29808 5493 c7 -3 16 -2 19 1 4 3 -2 6 -13 5 -11 0 -14 -3 -6 -6z"/>
<path d="M27660 5480 c0 -5 5 -10 11 -10 5 0 7 5 4 10 -3 6 -8 10 -11 10 -2 0
-4 -4 -4 -10z"/>
<path d="M29917 5464 c-20 -27 -4 -34 27 -11 15 11 15 15 4 24 -10 8 -17 5
-31 -13z"/>
<path d="M27075 5470 c-3 -5 -2 -10 4 -10 5 0 13 5 16 10 3 6 2 10 -4 10 -5 0
-13 -4 -16 -10z"/>
<path d="M26650 5455 c0 -8 5 -15 10 -15 6 0 10 7 10 15 0 8 -4 15 -10 15 -5
0 -10 -7 -10 -15z"/>
<path d="M3360 5444 c0 -8 5 -12 10 -9 6 4 8 11 5 16 -9 14 -15 11 -15 -7z"/>
<path d="M29615 5401 c-8 -14 13 -23 43 -18 25 4 42 17 21 17 -8 0 -24 3 -35
6 -12 3 -25 1 -29 -5z"/>
<path d="M23092 5358 c-14 -14 -16 -28 -3 -28 5 0 11 9 14 20 6 23 5 24 -11 8z"/>
<path d="M27243 5360 c-30 -12 -29 -18 2 -12 14 2 25 8 25 13 0 5 -1 9 -2 8
-2 0 -13 -4 -25 -9z"/>
<path d="M4614 5345 c-11 -29 2 -37 19 -11 15 23 16 26 2 26 -9 0 -18 -7 -21
-15z"/>
<path d="M4730 5345 c0 -8 5 -15 10 -15 6 0 10 7 10 15 0 8 -4 15 -10 15 -5 0
-10 -7 -10 -15z"/>
<path d="M25673 5339 c-24 -9 -31 -29 -10 -29 19 0 40 16 36 28 -3 6 -13 6
-26 1z"/>
<path d="M4575 5299 c5 -29 4 -40 -4 -35 -6 4 -11 1 -11 -8 0 -10 6 -13 16 -9
12 4 14 0 8 -22 -5 -21 -4 -26 7 -23 9 3 13 17 11 37 -1 17 2 31 8 31 5 0 10
7 10 15 0 9 -6 12 -15 9 -11 -5 -15 1 -15 20 0 14 -5 26 -11 26 -7 0 -8 -14
-4 -41z"/>
<path d="M4525 5320 c3 -5 8 -10 11 -10 2 0 4 5 4 10 0 6 -5 10 -11 10 -5 0
-7 -4 -4 -10z"/>
<path d="M4660 5321 c0 -19 30 -71 40 -71 18 0 10 29 -15 56 -14 15 -25 22
-25 15z"/>
<path d="M26536 5283 c-6 -14 -5 -15 5 -6 7 7 10 15 7 18 -3 3 -9 -2 -12 -12z"/>
<path d="M29500 5280 c0 -5 7 -7 15 -4 8 4 15 8 15 10 0 2 -7 4 -15 4 -8 0
-15 -4 -15 -10z"/>
<path d="M25121 5224 c0 -11 3 -14 6 -6 3 7 2 16 -1 19 -3 4 -6 -2 -5 -13z"/>
<path d="M4618 5175 c-3 -14 -1 -25 3 -25 5 0 9 11 9 25 0 14 -2 25 -4 25 -2
0 -6 -11 -8 -25z"/>
<path d="M26410 5180 c0 -5 5 -10 11 -10 5 0 7 5 4 10 -3 6 -8 10 -11 10 -2 0
-4 -4 -4 -10z"/>
<path d="M3434 5164 c3 -8 6 -18 6 -20 0 -2 5 -4 10 -4 16 0 11 27 -6 34 -12
5 -15 2 -10 -10z"/>
<path d="M4648 5173 c7 -3 16 -2 19 1 4 3 -2 6 -13 5 -11 0 -14 -3 -6 -6z"/>
<path d="M4480 5160 c0 -6 7 -10 15 -10 8 0 15 2 15 4 0 2 -7 6 -15 10 -8 3
-15 1 -15 -4z"/>
<path d="M4513 5110 c-8 -12 -9 -21 -3 -25 6 -4 8 -10 5 -15 -3 -5 -1 -11 5
-15 5 -3 11 -16 11 -28 1 -18 2 -19 6 -4 3 10 -1 32 -7 48 -10 23 -10 32 0 44
7 8 8 15 4 15 -5 0 -15 -9 -21 -20z"/>
<path d="M25716 5041 c-4 -7 -5 -15 -2 -18 9 -9 19 4 14 18 -4 11 -6 11 -12 0z"/>
<path d="M4500 4990 c-13 -8 -12 -10 3 -10 9 0 17 5 17 10 0 12 -1 12 -20 0z"/>
<path d="M3490 4980 c0 -5 5 -10 10 -10 6 0 10 5 10 10 0 6 -4 10 -10 10 -5 0
-10 -4 -10 -10z"/>
<path d="M4400 4969 c0 -5 5 -7 10 -4 6 3 10 8 10 11 0 2 -4 4 -10 4 -5 0 -10
-5 -10 -11z"/>
<path d="M4435 4940 c-3 -5 1 -10 10 -10 9 0 13 5 10 10 -3 6 -8 10 -10 10 -2
0 -7 -4 -10 -10z"/>
<path d="M4115 4900 c3 -5 8 -10 11 -10 2 0 4 5 4 10 0 6 -5 10 -11 10 -5 0
-7 -4 -4 -10z"/>
<path d="M4115 4867 c-4 -10 -3 -23 3 -29 14 -14 21 3 12 27 -7 19 -8 19 -15
2z"/>
<path d="M24155 4859 c-4 -6 -3 -15 3 -21 6 -6 11 -4 15 6 7 18 -9 31 -18 15z"/>
<path d="M3460 4845 c0 -8 -4 -15 -10 -15 -19 0 -10 -29 15 -48 14 -11 25 -25
25 -31 0 -15 41 -51 52 -45 7 5 5 27 -9 77 -2 9 -8 15 -13 12 -5 -3 -11 5 -13
17 l-4 23 -2 -23 c-1 -28 -34 -27 -39 2 -2 10 0 16 6 12 6 -4 8 2 5 14 -6 24
-13 26 -13 5z"/>
<path d="M4405 4850 c3 -5 15 -10 26 -10 10 0 19 5 19 10 0 6 -12 10 -26 10
-14 0 -23 -4 -19 -10z"/>
<path d="M3973 4823 c9 -2 23 -2 30 0 6 3 -1 5 -18 5 -16 0 -22 -2 -12 -5z"/>
<path d="M4391 4814 c0 -11 3 -14 6 -6 3 7 2 16 -1 19 -3 4 -6 -2 -5 -13z"/>
<path d="M3910 4805 c-13 -16 0 -35 33 -48 12 -5 17 -1 17 12 0 14 -5 18 -20
14 -22 -6 -29 22 -7 30 7 4 8 6 1 6 -6 1 -17 -6 -24 -14z"/>
<path d="M4611 4804 c0 -11 3 -14 6 -6 3 7 2 16 -1 19 -3 4 -6 -2 -5 -13z"/>
<path d="M4058 4793 c7 -3 16 -2 19 1 4 3 -2 6 -13 5 -11 0 -14 -3 -6 -6z"/>
<path d="M4217 4779 c7 -7 15 -10 18 -7 3 3 -2 9 -12 12 -14 6 -15 5 -6 -5z"/>
<path d="M3840 4761 c0 -9 -5 -22 -11 -28 -8 -8 -6 -17 10 -34 11 -13 21 -18
21 -13 0 6 -5 15 -10 20 -12 12 -3 44 12 44 5 0 12 -9 15 -20 3 -11 12 -20 19
-20 18 0 18 10 -1 37 -19 28 -55 37 -55 14z"/>
<path d="M4360 4760 c0 -24 15 -27 24 -4 9 22 8 24 -9 24 -8 0 -15 -9 -15 -20z"/>
<path d="M4308 4743 c7 -3 16 -2 19 1 4 3 -2 6 -13 5 -11 0 -14 -3 -6 -6z"/>
<path d="M4256 4719 c20 -22 34 -24 34 -5 0 7 -11 16 -25 19 -25 4 -25 4 -9
-14z"/>
<path d="M4150 4707 c0 -6 -14 -18 -30 -25 -18 -8 -27 -18 -23 -25 5 -8 8 -8
11 1 5 16 29 15 35 0 4 -10 6 -10 6 -1 1 7 8 10 19 7 13 -5 14 -4 3 4 -8 6
-11 18 -6 31 4 12 2 21 -4 21 -6 0 -11 -6 -11 -13z"/>
<path d="M3566 4681 c-3 -5 1 -14 9 -21 9 -8 15 -30 15 -59 1 -40 2 -44 14
-29 10 14 11 30 3 68 -9 46 -27 64 -41 41z"/>
<path d="M3895 4680 c-3 -5 1 -10 9 -10 10 0 16 -9 16 -25 0 -16 6 -25 15 -25
19 0 19 5 -2 41 -18 31 -28 35 -38 19z"/>
<path d="M3980 4680 c0 -5 7 -10 16 -10 8 0 12 5 9 10 -3 6 -10 10 -16 10 -5
0 -9 -4 -9 -10z"/>
<path d="M3726 4665 c4 -8 8 -15 10 -15 2 0 4 7 4 15 0 8 -4 15 -10 15 -5 0
-7 -7 -4 -15z"/>
<path d="M3828 4648 c5 -31 5 -31 13 -9 9 23 5 41 -10 41 -4 0 -5 -14 -3 -32z"/>
<path d="M4248 4673 c7 -3 16 -2 19 1 4 3 -2 6 -13 5 -11 0 -14 -3 -6 -6z"/>
<path d="M4360 4660 c0 -5 5 -10 10 -10 6 0 10 5 10 10 0 6 -4 10 -10 10 -5 0
-10 -4 -10 -10z"/>
<path d="M4820 4614 c0 -8 5 -12 10 -9 6 3 10 10 10 16 0 5 -4 9 -10 9 -5 0
-10 -7 -10 -16z"/>
<path d="M3890 4609 c0 -5 5 -7 10 -4 6 3 10 8 10 11 0 2 -4 4 -10 4 -5 0 -10
-5 -10 -11z"/>
<path d="M4065 4600 c-3 -5 1 -10 10 -10 9 0 13 5 10 10 -3 6 -8 10 -10 10 -2
0 -7 -4 -10 -10z"/>
<path d="M4562 4573 c2 -10 12 -18 23 -18 11 0 21 8 23 18 3 13 -3 17 -23 17
-20 0 -26 -4 -23 -17z"/>
<path d="M4066 4571 c-4 -7 -5 -15 -2 -18 9 -9 19 4 14 18 -4 11 -6 11 -12 0z"/>
<path d="M3955 4540 c3 -5 8 -10 11 -10 2 0 4 5 4 10 0 6 -5 10 -11 10 -5 0
-7 -4 -4 -10z"/>
<path d="M4012 4517 c-24 -14 -20 -27 10 -27 10 0 18 -7 18 -15 0 -18 16 -20
26 -3 4 6 0 16 -8 22 -8 6 -13 17 -11 24 6 15 -6 15 -35 -1z"/>
<path d="M3607 4513 c-13 -13 -7 -32 8 -27 8 4 15 12 15 20 0 15 -12 19 -23 7z"/>
<path d="M4290 4490 c0 -5 5 -10 10 -10 6 0 10 5 10 10 0 6 -4 10 -10 10 -5 0
-10 -4 -10 -10z"/>
<path d="M4233 4475 c-3 -9 -3 -19 1 -22 3 -4 6 1 6 10 0 8 6 18 13 20 9 4 9
6 -1 6 -7 1 -15 -6 -19 -14z"/>
<path d="M4656 4471 c-4 -7 -5 -15 -2 -18 9 -9 19 4 14 18 -4 11 -6 11 -12 0z"/>
<path d="M3920 4456 c0 -9 5 -16 10 -16 6 0 10 4 10 9 0 6 -4 13 -10 16 -5 3
-10 -1 -10 -9z"/>
<path d="M3635 4450 c-4 -7 -2 -15 4 -19 6 -4 10 -18 9 -31 -3 -20 4 -26 42
-37 25 -8 59 -11 75 -8 18 3 25 2 17 -3 -10 -7 -10 -11 3 -22 8 -7 15 -26 15
-42 0 -16 6 -39 14 -51 7 -12 14 -35 14 -52 0 -16 12 -73 25 -125 14 -52 30
-135 36 -185 16 -118 41 -263 52 -299 5 -16 9 -42 9 -58 0 -28 19 -118 42
-203 6 -22 11 -80 10 -130 -1 -73 2 -95 19 -122 11 -18 24 -33 29 -33 4 0 15
-16 24 -35 16 -32 20 -35 64 -36 26 -1 58 -1 72 0 48 2 80 -46 80 -122 0 -76
22 -130 69 -173 28 -25 41 -45 41 -63 0 -14 9 -42 19 -62 16 -30 18 -43 9 -82
-19 -93 -11 -114 72 -183 41 -35 85 -63 97 -63 12 -1 25 -5 28 -11 3 -5 13
-10 21 -10 17 0 53 -38 54 -55 0 -12 136 -55 172 -55 31 0 50 -20 38 -39 -10
-16 -124 -8 -146 10 -7 6 -22 8 -34 4 -13 -4 -22 -1 -26 9 -5 13 -11 11 -35
-11 -18 -18 -25 -31 -19 -37 15 -15 12 -52 -4 -65 -8 -7 -19 -26 -25 -42 -10
-29 -8 -31 34 -57 25 -15 45 -31 45 -37 0 -11 102 -62 161 -81 29 -9 45 -8 75
2 44 16 90 18 98 5 11 -18 -21 -41 -71 -50 -56 -11 -201 1 -212 17 -3 5 -15
12 -27 16 -11 3 -30 20 -42 36 -13 17 -30 30 -39 30 -9 0 -24 7 -33 15 -15 13
-20 12 -49 -14 -28 -25 -30 -29 -14 -36 17 -7 17 -8 -2 -15 -30 -13 -35 -12
-28 8 4 11 -3 8 -22 -11 -15 -15 -32 -27 -37 -27 -5 0 -7 -4 -3 -9 3 -5 0 -13
-6 -17 -6 -3 -14 -2 -18 4 -4 7 -12 8 -21 2 -11 -7 -11 -11 -1 -24 7 -9 17
-14 21 -11 5 3 11 1 15 -5 3 -5 1 -10 -5 -10 -7 0 -5 -7 4 -16 20 -19 30 -58
22 -80 -6 -17 -31 -14 -31 4 0 5 -3 14 -7 18 -5 4 -8 22 -8 40 0 26 -5 33 -27
39 -42 11 -97 12 -110 2 -7 -5 -20 -7 -28 -3 -11 4 -15 -2 -15 -24 0 -23 4
-30 20 -30 11 0 24 -8 27 -17 4 -10 18 -33 32 -52 14 -18 26 -38 27 -45 1 -6
5 -19 9 -28 6 -14 2 -18 -18 -18 -17 0 -27 7 -32 23 -4 14 -8 17 -12 9 -6 -16
-38 24 -38 48 0 8 -8 15 -17 15 -9 0 -20 4 -24 8 -4 4 -15 7 -25 7 -14 0 -17
-9 -15 -52 3 -69 21 -113 46 -115 11 -1 20 2 20 8 0 20 28 8 34 -15 8 -33 60
-58 126 -61 57 -3 130 -28 130 -45 0 -17 22 -11 45 14 16 17 20 32 17 60 -2
21 0 36 6 36 6 0 10 -14 10 -30 -1 -37 2 -40 38 -44 16 -2 33 -4 37 -5 10 -1
5 -104 -6 -112 -4 -3 -5 -24 -1 -47 5 -32 11 -42 25 -42 11 0 19 -4 19 -10 0
-19 38 -10 53 12 16 23 16 23 16 2 1 -30 29 -53 42 -33 15 24 10 39 -13 40
-21 1 -21 2 -3 6 11 3 23 9 26 14 16 25 147 16 142 -10 -2 -6 2 -11 8 -11 6 0
9 -6 6 -12 -3 -12 19 -37 34 -38 4 0 9 9 12 19 4 17 11 19 66 14 l61 -6 0 32
c0 18 6 34 14 37 26 10 50 76 47 133 -2 36 2 57 11 62 20 13 91 11 150 -5 119
-33 143 -42 146 -59 3 -15 -6 -17 -67 -17 -59 0 -73 -3 -91 -22 -26 -28 -26
-30 10 -61 17 -15 30 -31 30 -36 0 -5 -13 -11 -30 -15 -27 -5 -43 -26 -20 -26
5 0 7 -7 4 -15 -6 -15 -2 -16 104 -16 76 0 125 5 141 15 8 5 20 1 34 -12 17
-17 18 -24 8 -36 -19 -22 5 -29 71 -22 29 3 63 6 76 6 12 0 22 6 22 14 0 24
79 95 115 102 20 3 41 16 50 30 15 23 15 24 -14 24 -17 0 -40 4 -53 9 -54 20
-121 31 -132 22 -7 -6 -30 -13 -53 -17 -44 -7 -63 7 -43 31 16 19 -3 45 -29
38 -21 -5 -44 20 -39 44 2 13 11 17 33 15 42 -4 99 -23 107 -35 4 -7 11 -7 22
2 11 10 23 10 58 0 24 -7 50 -19 59 -26 9 -7 45 -16 81 -20 63 -5 117 5 211
39 46 18 44 -1 -6 -45 -54 -49 -62 -70 -19 -56 15 5 46 14 70 19 23 6 42 15
42 20 0 6 6 10 13 10 22 0 62 91 59 135 -2 27 0 36 6 26 5 -7 7 -22 5 -32 -8
-31 6 -22 20 13 20 48 28 163 12 184 -11 15 -13 14 -19 -9 -7 -30 -20 -34 -41
-14 -15 16 -2 47 20 47 20 0 35 32 28 58 -8 32 -42 29 -36 -2 4 -17 -1 -27
-16 -35 -18 -10 -22 -7 -36 19 -13 25 -20 30 -38 24 -12 -3 -26 -7 -32 -8 -16
-2 -17 41 -1 57 21 21 20 27 -4 27 -12 0 -25 -10 -32 -25 -9 -21 -16 -24 -47
-19 -20 3 -48 15 -62 25 -15 10 -36 19 -48 19 -14 0 -19 5 -15 15 7 18 -10 20
-28 2 -7 -7 -33 -13 -58 -12 -42 0 -45 2 -48 28 -2 19 -9 27 -23 27 -13 0 -19
6 -17 18 2 13 -5 18 -34 20 -34 3 -40 8 -58 49 -11 25 -20 53 -20 62 0 9 -6
25 -14 36 -7 11 -19 37 -25 58 -7 20 -17 37 -23 37 -6 0 -8 9 -5 20 3 11 -1
44 -9 73 -8 28 -16 101 -18 160 -2 61 -9 114 -15 120 -6 6 -11 45 -11 89 0 74
-1 79 -26 90 -18 9 -36 9 -64 1 -36 -9 -41 -8 -55 13 -8 13 -15 27 -15 33 0 5
-7 11 -15 15 -9 3 -15 18 -15 37 0 22 -5 32 -18 36 -21 5 -41 67 -49 150 -6
62 -46 116 -80 107 -18 -5 -39 9 -43 31 -2 6 -4 15 -6 20 -20 69 -28 87 -43
93 -20 8 -50 43 -51 59 0 8 -10 11 -30 7 -25 -6 -31 -3 -39 19 -6 15 -24 38
-40 53 -17 15 -33 35 -37 46 -3 10 -9 16 -14 13 -4 -3 -11 6 -14 20 -4 14 -11
25 -16 25 -6 0 -10 6 -10 13 0 8 -9 22 -19 31 -13 12 -20 31 -19 54 0 35 -11
70 -32 102 -37 56 -145 383 -170 510 -4 25 -19 75 -33 111 -16 42 -24 81 -22
107 2 24 -1 40 -6 36 -5 -3 -9 -11 -9 -19 0 -9 -17 -16 -47 -20 -27 -3 -62 -7
-79 -9 -18 -3 -36 0 -42 6 -7 7 -22 4 -47 -12 -42 -26 -65 -17 -46 19 8 15 9
21 1 21 -6 0 -9 4 -5 9 3 6 -4 15 -15 21 -11 6 -18 15 -15 21 4 5 1 9 -4 9 -6
0 -11 -13 -11 -30 0 -20 5 -30 15 -30 22 0 12 -43 -11 -47 -30 -5 -84 7 -84
18 0 7 16 8 43 4 l42 -6 -24 20 c-12 12 -28 18 -34 14 -5 -3 -25 -6 -44 -5
-18 1 -33 -3 -33 -9 0 -6 -6 -9 -14 -6 -10 4 -16 -2 -18 -16 -3 -19 -8 -22
-43 -19 -22 2 -45 10 -51 18 -15 18 -34 18 -34 -1 0 -8 -5 -15 -11 -15 -5 0
-7 5 -4 10 4 7 -18 8 -67 4 -68 -7 -72 -6 -59 10 19 23 8 30 -28 18 -23 -8
-31 -8 -31 1 0 8 -4 7 -9 -2 -8 -12 -11 -9 -16 12 -6 21 -16 29 -46 37 -21 6
-39 15 -39 20 0 5 -12 13 -27 16 -16 4 -33 14 -39 22 -9 12 -13 12 -19 2z m65
-64 c0 -3 -4 -8 -10 -11 -5 -3 -10 -1 -10 4 0 6 5 11 10 11 6 0 10 -2 10 -4z
m538 -83 c2 -8 -5 -13 -17 -13 -12 0 -21 6 -21 16 0 18 31 15 38 -3z m960
-2082 c3 -27 0 -32 -15 -29 -19 3 -28 30 -19 54 10 26 31 10 34 -25z m-488
-255 c0 -3 -4 -8 -10 -11 -5 -3 -10 -1 -10 4 0 6 5 11 10 11 6 0 10 -2 10 -4z
m360 -42 c0 -8 -4 -12 -10 -9 -5 3 -10 13 -10 21 0 8 5 12 10 9 6 -3 10 -13
10 -21z m670 -244 c13 -9 13 -12 -2 -21 -20 -11 -24 -44 -7 -54 16 -11 81 -13
107 -4 12 5 22 15 22 22 0 8 9 22 20 32 19 17 21 17 41 -1 11 -10 18 -26 16
-36 -5 -16 2 -17 71 -14 43 1 84 6 93 10 11 5 24 0 35 -12 13 -12 35 -19 67
-20 62 -2 70 -8 62 -43 -4 -18 -3 -29 4 -29 6 0 11 -6 11 -14 0 -9 7 -12 20
-9 26 7 43 -34 29 -74 -19 -58 -22 -63 -38 -63 -13 0 -16 10 -14 55 2 54 1 55
-22 49 -19 -5 -32 1 -53 22 -15 16 -31 36 -34 44 -5 13 -26 14 -144 9 -176 -7
-334 -1 -351 13 -22 18 -13 93 14 123 26 28 31 29 53 15z m-526 -67 c4 -10 -3
-27 -21 -45 -25 -26 -29 -27 -40 -12 -13 18 -7 43 16 61 22 17 38 16 45 -4z
m-134 -63 c0 -28 -56 -103 -71 -95 -14 9 -11 28 10 77 13 32 24 44 40 44 16 0
21 -6 21 -26z m-492 -19 c3 -8 -1 -12 -9 -9 -7 2 -15 10 -17 17 -3 8 1 12 9 9
7 -2 15 -10 17 -17z m1131 -56 c16 5 21 2 21 -12 0 -46 -70 -80 -78 -39 -5 24
19 71 29 55 4 -6 16 -8 28 -4z m668 -17 c-3 -8 -6 -5 -6 6 -1 11 2 17 5 13 3
-3 4 -12 1 -19z m-2112 -38 c3 -5 1 -10 -4 -10 -6 0 -11 5 -11 10 0 6 2 10 4
10 3 0 8 -4 11 -10z m103 -81 c-2 -6 -8 -10 -13 -10 -5 0 -11 4 -13 10 -2 6 4
11 13 11 9 0 15 -5 13 -11z m362 -53 c0 -3 -4 -8 -10 -11 -5 -3 -10 -1 -10 4
0 6 5 11 10 11 6 0 10 -2 10 -4z m296 -153 c-10 -10 -19 5 -10 18 6 11 8 11
12 0 2 -7 1 -15 -2 -18z m-284 -25 c-6 -6 -19 -7 -29 -3 -17 7 -17 8 2 15 24
9 41 2 27 -12z m708 1 c0 -5 -4 -9 -10 -9 -5 0 -10 7 -10 16 0 8 5 12 10 9 6
-3 10 -10 10 -16z m346 -55 c-4 -9 -9 -15 -11 -12 -3 3 -3 13 1 22 4 9 9 15
11 12 3 -3 3 -13 -1 -22z"/>
<path d="M3767 4429 c7 -7 15 -10 18 -7 3 3 -2 9 -12 12 -14 6 -15 5 -6 -5z"/>
<path d="M3821 4424 c0 -11 3 -14 6 -6 3 7 2 16 -1 19 -3 4 -6 -2 -5 -13z"/>
<path d="M3880 4430 c8 -5 22 -9 30 -9 10 0 8 3 -5 9 -27 12 -43 12 -25 0z"/>
<path d="M4013 4432 c-8 -5 -2 -12 18 -21 36 -16 51 -7 23 14 -22 17 -25 17
-41 7z"/>
<path d="M4720 4431 c0 -6 0 -14 1 -17 0 -4 -5 -10 -12 -15 -8 -4 -11 -10 -9
-13 3 -2 15 4 27 14 20 15 21 20 8 30 -11 9 -15 9 -15 1z"/>
<path d="M4416 4415 c-3 -9 0 -15 8 -15 8 0 16 7 20 15 3 9 0 15 -8 15 -8 0
-16 -7 -20 -15z"/>
<path d="M4086 4411 c-3 -5 1 -12 10 -15 20 -8 29 -1 19 13 -8 13 -22 14 -29
2z"/>
<path d="M3900 4385 c0 -17 2 -18 24 -9 18 7 12 24 -10 24 -8 0 -14 -7 -14
-15z"/>
<path d="M4045 4370 c-3 -5 -2 -10 4 -10 5 0 13 5 16 10 3 6 2 10 -4 10 -5 0
-13 -4 -16 -10z"/>
<path d="M4430 4365 c0 -19 11 -19 36 0 18 14 18 14 -8 15 -18 0 -28 -5 -28
-15z"/>
<path d="M4580 4371 c0 -5 -8 -12 -17 -14 -14 -4 -13 -5 3 -6 12 0 24 6 28 14
3 8 1 15 -4 15 -6 0 -10 -4 -10 -9z"/>
<path d="M4105 4330 c-3 -5 -1 -10 4 -10 6 0 11 5 11 10 0 6 -2 10 -4 10 -3 0
-8 -4 -11 -10z"/>
<path d="M6145 1850 c-3 -5 -17 -10 -30 -10 -29 0 -42 -18 -20 -26 9 -4 14
-13 11 -20 -3 -7 -1 -16 4 -19 6 -4 10 -2 10 4 0 6 12 8 28 5 27 -6 28 -5 24
30 -4 38 -16 54 -27 36z"/>
<path d="M5952 1843 c-7 -2 -17 -13 -23 -24 -9 -18 -7 -19 43 -15 57 4 88 13
88 26 0 17 -75 27 -108 13z"/>
<path d="M4204 1732 c-8 -5 -8 -15 -2 -32 l9 -25 14 25 c8 14 14 28 15 33 0 9
-22 9 -36 -1z"/>
<path d="M6335 1700 c3 -5 8 -10 11 -10 2 0 4 5 4 10 0 6 -5 10 -11 10 -5 0
-7 -4 -4 -10z"/>
<path d="M4450 1235 c0 -16 6 -25 16 -25 11 0 14 5 10 16 -3 9 -6 20 -6 25 0
5 -4 9 -10 9 -5 0 -10 -11 -10 -25z"/>
<path d="M5313 1225 c-3 -9 -3 -18 -1 -21 3 -3 8 4 11 16 6 23 -1 27 -10 5z"/>
<path d="M5270 1213 c1 -18 18 -35 24 -24 4 6 4 16 1 21 -7 12 -25 13 -25 3z"/>
<path d="M4908 1112 c-16 -7 -16 -9 5 -34 20 -23 25 -25 45 -14 l22 12 -25 22
c-14 12 -26 22 -28 21 -1 0 -10 -4 -19 -7z"/>
<path d="M4858 1103 c7 -3 16 -2 19 1 4 3 -2 6 -13 5 -11 0 -14 -3 -6 -6z"/>
<path d="M5166 1064 c-11 -30 -6 -36 18 -21 20 13 25 14 29 3 6 -15 71 -26 88
-15 19 11 -1 29 -26 23 -12 -3 -36 1 -53 10 -39 20 -48 20 -56 0z"/>
<path d="M5961 1034 c0 -11 3 -14 6 -6 3 7 2 16 -1 19 -3 4 -6 -2 -5 -13z"/>
<path d="M5580 1010 c0 -5 4 -10 9 -10 6 0 13 5 16 10 3 6 -1 10 -9 10 -9 0
-16 -4 -16 -10z"/>
</g>
</svg>
